<svg width="952" height="24" viewBox="0 0 952 24" fill="none" xmlns="http://www.w3.org/2000/svg">
<path d="M0 12C-3.86258e-07 16.4183 3.58172 20 8 20C12.4183 20 16 16.4183 16 12C16 7.58172 12.4183 4 8 4C3.58172 4 3.86258e-07 7.58172 0 12ZM951.061 13.0607C951.646 12.475 951.646 11.5252 951.061 10.9394L941.515 1.39348C940.929 0.807693 939.979 0.807693 939.393 1.39348C938.808 1.97927 938.808 2.92901 939.393 3.5148L947.879 12.0001L939.393 20.4854C938.808 21.0711 938.808 22.0209 939.393 22.6067C939.979 23.1925 940.929 23.1925 941.515 22.6067L951.061 13.0607ZM8 13.5L950 13.5001L950 10.5001L8 10.5L8 13.5Z" fill="#EB8A24"/>
</svg>
