<svg width="31" height="24" viewBox="0 0 31 24" fill="none" xmlns="http://www.w3.org/2000/svg">
    <path d="M12.6048 6.33613C12.6048 4.82211 11.3815 3.64453 9.93582 3.64453H0.59436V5.21463H9.93582C10.5475 5.21463 11.0479 5.71931 11.0479 6.33613C11.0479 6.95295 10.5475 7.45762 9.93582 7.45762H0.59436V9.02771H9.93582C11.3815 9.02771 12.6048 7.85015 12.6048 6.33613Z" fill="#FF3333"/>
    <path d="M12.6048 17.6076C12.6048 16.0936 11.3815 14.916 9.93582 14.916H0.59436V16.4861H9.93582C10.5475 16.4861 11.0479 16.9908 11.0479 17.6076C11.0479 18.2244 10.5475 18.7291 9.93582 18.7291H0.59436V20.2992H9.93582C11.3815 20.2992 12.6048 19.1216 12.6048 17.6076Z" fill="#FF3333"/>
    <path d="M29.6823 22.4299H14.0934C14.7599 21.8692 15.2599 21.1402 15.6487 20.3551H27.516C27.9604 20.3551 28.2937 20.0187 28.2937 19.5701C28.2937 19.1215 27.9604 18.785 27.516 18.785H16.2042C16.2597 18.3925 16.3153 18 16.3153 17.6075C16.3153 17.215 16.2597 16.8785 16.2042 16.542H25.4607C25.9051 16.542 26.2384 16.2056 26.2384 15.757C26.2384 15.3084 25.9051 14.972 25.4607 14.972H15.7042C15.3154 14.1308 14.7599 13.4019 14.0934 12.8411H23.2944C23.7388 12.8411 24.0721 12.5047 24.0721 12.0561C24.0721 11.6075 23.7388 11.271 23.2944 11.271H14.0378C14.7044 10.7103 15.2599 9.98131 15.6487 9.14019H26.4051C26.8494 9.14019 27.1827 8.80375 27.1827 8.35515C27.1827 7.90655 26.8494 7.57009 26.4051 7.57009H16.1486C16.2042 7.17757 16.2597 6.78506 16.2597 6.39253C16.2597 6.00001 16.2042 5.66355 16.1486 5.3271H26.6828C27.1272 5.3271 27.4605 4.99066 27.4605 4.54206C27.4605 4.09346 27.1272 3.75701 26.6828 3.75701H15.6487C15.2599 2.91589 14.7044 2.18693 14.0378 1.5701H25.3496C25.794 1.5701 26.1273 1.23366 26.1273 0.78506C26.1273 0.336462 25.794 0 25.3496 0H0.539795V1.5701H9.87176C12.538 1.5701 14.6488 3.75702 14.6488 6.39253C14.6488 9.02805 12.4825 11.2149 9.87176 11.2149H0.539795V12.7851H10.2051C12.7047 12.9533 14.7044 15.028 14.7044 17.6075C14.7044 20.2991 12.538 22.4299 9.92731 22.4299H0.595346V24H29.6823C30.1267 24 30.46 23.6636 30.46 23.215C30.46 22.7664 30.1267 22.4299 29.6823 22.4299Z" fill="#FF3333"/>
</svg>
