<svg width="150" height="24" viewBox="0 0 150 24" fill="none" xmlns="http://www.w3.org/2000/svg">
    <path d="M135.27 10.8959H133.652V23.9032H135.27V10.8959ZM63.977 10.8959H62.3589V23.8395H62.38V23.8504H63.872V23.8395H63.977V10.8959ZM57.6914 19.167C57.6914 20.2917 57.3058 21.0974 56.512 21.6302C55.7047 22.1733 54.4872 22.4482 52.893 22.4482H46.7893V15.9103H52.893C54.4866 15.9103 55.7047 16.1818 56.5127 16.7167C57.3058 17.2421 57.6914 18.0438 57.6914 19.167ZM55.6618 13.6408C54.9035 14.1811 53.793 14.4553 52.3616 14.4553H46.7893V8.15715H52.3616C53.793 8.15715 54.9035 8.43136 55.6618 8.97235C56.4105 9.5052 56.7737 10.2649 56.7737 11.294C56.7737 12.3408 56.4105 13.1079 55.6618 13.6408ZM58.3209 16.3233C57.7731 15.7038 57.0162 15.2556 56.0671 14.9881C56.698 14.6868 57.2226 14.2691 57.628 13.7444C58.1608 13.0558 58.4313 12.1993 58.4313 11.1986C58.4313 9.76182 57.8876 8.6372 56.8152 7.85721C55.7626 7.09076 54.2801 6.70212 52.41 6.70212H45.1562V23.9032H52.893C54.9873 23.9032 56.5965 23.5024 57.6737 22.7122C58.7692 21.9078 59.3244 20.7473 59.3244 19.2632C59.3244 18.0668 58.9872 17.0783 58.3209 16.3233ZM64.0158 8.00887C64.2481 7.77799 64.366 7.49429 64.366 7.16659C64.366 6.83686 64.2468 6.55655 64.0124 6.33311C63.7794 6.11171 63.4953 6 63.1676 6C62.8385 6 62.5531 6.11713 62.3201 6.34869C62.0878 6.57957 61.9699 6.86326 61.9699 7.19029C61.9699 7.52003 62.0891 7.80034 62.3235 8.02377C62.5565 8.24517 62.8406 8.35689 63.1676 8.35689C63.4973 8.35689 63.7821 8.23976 64.0158 8.00887ZM75.4997 23.0514L75.6169 22.9404L74.8967 21.748L74.7149 21.9119C74.2373 22.3418 73.62 22.5599 72.8815 22.5599C72.1661 22.5599 71.6231 22.3662 71.2682 21.9843C70.9084 21.5984 70.7259 21.0148 70.7259 20.249V12.3354H74.0417C74.4382 12.3354 74.7598 12.0158 74.7598 11.6217V11.6089C74.7598 11.2148 74.4382 10.8959 74.0417 10.8959H70.7259V8.14293H69.1078V10.8959H66.7751V12.3354H69.1078V20.3702C69.1078 21.4989 69.4301 22.3953 70.065 23.0345C70.7007 23.675 71.6075 24 72.7602 24C73.2814 24 73.789 23.9194 74.27 23.7596C74.7571 23.5985 75.1706 23.3602 75.4997 23.0514ZM84.2353 16.9273H79.6052V8.20522H84.2353C85.9814 8.20522 87.327 8.58912 88.2358 9.34677C89.1344 10.0963 89.5902 11.1789 89.5902 12.5663C89.5902 13.9536 89.1344 15.0369 88.2358 15.7864C87.3277 16.5434 85.9814 16.9273 84.2353 16.9273ZM91.7015 23.9032L87.4094 17.9314C88.5894 17.5421 89.5214 16.9043 90.1795 16.0349C90.8881 15.0992 91.2465 13.9326 91.2465 12.5663C91.2465 10.7368 90.6128 9.28448 89.3627 8.24923C88.1241 7.2228 86.3984 6.70212 84.2353 6.70212H77.9721V23.9032H79.6052V18.406H84.2353C84.7081 18.406 85.2293 18.3708 85.7838 18.3004L89.8082 23.9032H91.7015ZM103.987 23.9032H105.558V10.8959H103.939V17.8102C103.939 19.2476 103.536 20.4041 102.742 21.247C101.951 22.0866 100.86 22.5118 99.499 22.5118C98.2331 22.5118 97.2432 22.1584 96.5571 21.461C95.8697 20.7629 95.5209 19.7216 95.5209 18.3654V10.8959H93.9028V18.4622C93.9028 20.2328 94.3975 21.6133 95.373 22.566C96.3466 23.5173 97.7024 24 99.4022 24C100.552 24 101.568 23.7427 102.422 23.2349C103.055 22.8578 103.581 22.3622 103.987 21.7589V23.9032ZM110.567 15.5982C110.267 15.3213 110.12 14.9387 110.12 14.4289C110.12 13.7823 110.387 13.2745 110.937 12.8764C111.498 12.4694 112.357 12.2629 113.491 12.2629C114.165 12.2629 114.833 12.3577 115.475 12.5446C116.114 12.7301 116.691 13.0043 117.188 13.3598L117.369 13.4898L118.13 12.1769L117.985 12.0706C117.466 11.6874 116.79 11.376 115.977 11.1451C115.167 10.9156 114.34 10.7991 113.515 10.7991C111.937 10.7991 110.697 11.1424 109.83 11.8201C108.949 12.5087 108.502 13.395 108.502 14.4533C108.502 15.3233 108.741 16.0193 109.212 16.5217C109.671 17.0113 110.23 17.3708 110.874 17.5895C111.497 17.8007 112.324 17.9984 113.332 18.1758C114.182 18.3356 114.853 18.4879 115.329 18.6301C115.781 18.7649 116.167 18.9768 116.476 19.2612C116.768 19.5306 116.91 19.8935 116.91 20.3702C116.91 21.0473 116.64 21.5619 116.086 21.9437C115.516 22.3364 114.602 22.5362 113.369 22.5362C112.506 22.5362 111.665 22.394 110.873 22.113C110.082 21.8327 109.428 21.4793 108.931 21.0615L108.746 20.9071L107.987 22.2213L108.106 22.3297C108.643 22.8131 109.395 23.2173 110.341 23.5308C111.28 23.8422 112.283 24 113.321 24C114.945 24 116.227 23.6703 117.133 23.0203C118.059 22.3554 118.529 21.4556 118.529 20.3458C118.529 19.509 118.298 18.8373 117.843 18.3498C117.4 17.8766 116.853 17.5292 116.216 17.318C115.603 17.1148 114.789 16.9219 113.797 16.7438C112.918 16.5691 112.226 16.4046 111.74 16.2543C111.278 16.1114 110.883 15.8907 110.567 15.5982ZM122.815 15.5982C122.515 15.3213 122.369 14.9387 122.369 14.4289C122.369 13.7823 122.636 13.2752 123.185 12.8764C123.747 12.4694 124.606 12.2629 125.74 12.2629C126.414 12.2629 127.081 12.3577 127.724 12.5446C128.363 12.7301 128.94 13.005 129.437 13.3598L129.618 13.4898L130.378 12.1769L130.233 12.0706C129.714 11.6874 129.038 11.376 128.226 11.1451C127.416 10.9156 126.589 10.7991 125.764 10.7991C124.186 10.7991 122.946 11.1424 122.079 11.8201C121.198 12.5087 120.751 13.3943 120.751 14.4533C120.751 15.3226 120.99 16.0187 121.461 16.5217C121.92 17.0113 122.478 17.3708 123.123 17.5895C123.746 17.8007 124.573 17.9984 125.581 18.1758C126.429 18.3349 127.102 18.4879 127.578 18.6301C128.03 18.7649 128.416 18.9768 128.725 19.2612C129.017 19.5306 129.159 19.8935 129.159 20.3702C129.159 21.0466 128.889 21.5619 128.335 21.9437C127.765 22.3364 126.851 22.5362 125.618 22.5362C124.755 22.5362 123.914 22.394 123.122 22.113C122.33 21.832 121.676 21.4786 121.18 21.0615L120.995 20.9071L120.236 22.2213L120.355 22.3297C120.892 22.8131 121.643 23.2173 122.589 23.5308C123.529 23.8422 124.532 24 125.57 24C127.193 24 128.475 23.6703 129.381 23.0203C130.308 22.3554 130.777 21.4556 130.777 20.3458C130.777 19.509 130.546 18.8373 130.092 18.3498C129.65 17.8766 129.102 17.5292 128.464 17.318C127.852 17.1148 127.038 16.9219 126.046 16.7438C125.167 16.5691 124.475 16.4046 123.989 16.2543C123.528 16.1114 123.132 15.8907 122.815 15.5982ZM135.308 8.00887C135.541 7.77799 135.659 7.49497 135.659 7.16659C135.659 6.83686 135.54 6.55655 135.305 6.33311C135.072 6.11171 134.788 6 134.461 6C134.131 6 133.846 6.11713 133.613 6.34869C133.381 6.57957 133.263 6.86326 133.263 7.19029C133.263 7.52003 133.382 7.80034 133.617 8.02377C133.849 8.24517 134.133 8.35689 134.461 8.35689C134.79 8.35689 135.075 8.23976 135.308 8.00887ZM147.391 19.9321C147.035 20.7961 146.503 21.4637 145.811 21.9173C145.111 22.3757 144.245 22.6086 143.237 22.6086C142.17 22.6086 141.337 22.3825 140.761 21.9383C140.192 21.4996 139.915 20.9159 139.915 20.1529C139.915 19.4209 140.165 18.8637 140.679 18.4487C141.199 18.0296 142.068 17.8176 143.262 17.8176H147.386L147.391 19.9321ZM149.004 23.9032V23.8504V15.7099V15.7092C149.004 15.6361 148.998 15.567 148.996 15.4953C148.993 15.3741 148.992 15.2509 148.983 15.1344C148.887 13.8155 148.449 12.7795 147.677 12.0497C146.801 11.2202 145.535 10.7991 143.917 10.7991C142.927 10.7991 141.964 10.9616 141.055 11.2812C140.144 11.6028 139.353 12.0591 138.704 12.6374L138.571 12.7558L139.412 13.9583L139.582 13.8046C140.096 13.3408 140.732 12.9637 141.473 12.6841C142.217 12.4044 143.006 12.2629 143.821 12.2629C144.992 12.2629 145.889 12.5527 146.487 13.1242C147.083 13.6956 147.386 14.5487 147.386 15.6605V16.4743H143.237C141.543 16.4743 140.284 16.8203 139.496 17.5015C138.701 18.1907 138.297 19.0987 138.297 20.2009C138.297 21.3384 138.735 22.268 139.599 22.9648C140.449 23.652 141.617 24 143.067 24C144.18 24 145.152 23.7847 145.956 23.3602C146.549 23.0474 147.046 22.635 147.434 22.1326V23.9032H149.004Z" fill="#003366"/>
    <path d="M12.1376 6.33613C12.1376 4.82211 10.9069 3.64453 9.45252 3.64453H0.0546875V5.21463H9.45252C10.0678 5.21463 10.5713 5.71931 10.5713 6.33613C10.5713 6.95295 10.0678 7.45762 9.45252 7.45762H0.0546875V9.02771H9.45252C10.9069 9.02771 12.1376 7.85015 12.1376 6.33613Z" fill="#FF3333"/>
    <path d="M12.1376 17.6076C12.1376 16.0936 10.9069 14.916 9.45252 14.916H0.0546875V16.4861H9.45252C10.0678 16.4861 10.5713 16.9908 10.5713 17.6076C10.5713 18.2244 10.0678 18.7291 9.45252 18.7291H0.0546875V20.2992H9.45252C10.9069 20.2992 12.1376 19.1216 12.1376 17.6076Z" fill="#FF3333"/>
    <path d="M29.3184 22.4299H13.6354C14.3059 21.8692 14.8089 21.1402 15.2001 20.3551H27.139C27.586 20.3551 27.9213 20.0187 27.9213 19.5701C27.9213 19.1215 27.586 18.785 27.139 18.785H15.7589C15.8148 18.3925 15.8707 18 15.8707 17.6075C15.8707 17.215 15.8148 16.8785 15.7589 16.542H25.0713C25.5184 16.542 25.8537 16.2056 25.8537 15.757C25.8537 15.3084 25.5184 14.972 25.0713 14.972H15.2559C14.8648 14.1308 14.3059 13.4019 13.6354 12.8411H22.8919C23.339 12.8411 23.6743 12.5047 23.6743 12.0561C23.6743 11.6075 23.339 11.271 22.8919 11.271H13.5795C14.2501 10.7103 14.8089 9.98131 15.2001 9.14019H26.0213C26.4684 9.14019 26.8037 8.80375 26.8037 8.35515C26.8037 7.90655 26.4684 7.57009 26.0213 7.57009H15.703C15.7589 7.17757 15.8148 6.78506 15.8148 6.39253C15.8148 6.00001 15.7589 5.66355 15.703 5.3271H26.3007C26.7478 5.3271 27.0831 4.99066 27.0831 4.54206C27.0831 4.09346 26.7478 3.75701 26.3007 3.75701H15.2001C14.8089 2.91589 14.2501 2.18693 13.5795 1.5701H24.9596C25.4066 1.5701 25.7419 1.23366 25.7419 0.78506C25.7419 0.336462 25.4066 0 24.9596 0H0V1.5701H9.38828C12.0706 1.5701 14.1942 3.75702 14.1942 6.39253C14.1942 9.02805 12.0148 11.2149 9.38828 11.2149H0V12.7851H9.72358C12.2383 12.9533 14.2501 15.028 14.2501 17.6075C14.2501 20.2991 12.0706 22.4299 9.44416 22.4299H0.055886V24H29.3184C29.7655 24 30.1008 23.6636 30.1008 23.215C30.1008 22.7664 29.7655 22.4299 29.3184 22.4299Z" fill="#FF3333"/>
</svg>
