<svg width="317" height="64" viewBox="0 0 317 64" fill="none" xmlns="http://www.w3.org/2000/svg">
<path d="M1.48992 46.6895L1.56152 46.5803L1.88906 46.1438H1.96067C2.23673 46.1438 2.34946 46.2312 2.31869 46.4168L1.96067 46.8644H1.56152C1.4695 46.8644 1.43873 46.8098 1.48992 46.6895ZM3.46465 45.0963L4.04785 44.0374L4.53902 43.4371L4.90739 42.6298L3.88422 43.1755H3.7922C4.00701 42.6188 4.12981 42.2915 4.181 42.204C4.29343 42.0295 4.07862 41.9421 3.53626 41.9421C2.82022 41.1344 2.57463 40.5234 2.78945 40.0976C2.40065 40.0976 2.1243 39.9231 1.96067 39.5737C1.48992 39.5737 1.40825 39.0498 1.71508 38.013C2.43142 36.7036 2.66665 36.0487 2.42107 36.0487C2.83028 35.3174 3.03503 34.6079 3.03503 33.9423L3.71024 32.9162C4.18099 30.919 4.48783 29.8059 4.62098 29.5657C4.84585 28.0268 5.11185 26.8265 5.41898 25.975L5.57254 25.7134C5.96134 25.4186 6.17615 25.244 6.20692 25.1894C6.64661 23.5741 6.94338 22.6027 7.1073 22.2862C7.73133 20.1362 8.18137 18.8157 8.44766 18.3464L8.61129 18.0844H8.76485L8.90806 18.2482H9.00008C9.54244 17.3096 9.64452 16.644 9.31727 16.2618C9.5525 15.4323 9.6241 14.963 9.54244 14.8431H9.29685C8.95925 14.8431 8.30416 14.9848 7.35289 15.2796H6.86172L7.02534 15.0176C7.51651 14.6357 8.41689 14.2317 9.73684 13.7953C9.83892 13.5879 9.70606 13.4351 9.32733 13.3588C9.54244 12.9876 9.93123 12.6931 10.494 12.4637C10.4837 12.191 10.678 11.6889 11.0976 10.9797C11.1896 10.7941 11.3021 10.303 11.4456 9.48433L11.6092 9.22238C11.8752 9.22238 11.998 9.37512 11.9776 9.68063H12.0492C12.0696 9.37512 12.1308 9.13493 12.2232 8.9604C12.2948 8.84047 12.3764 8.77482 12.4892 8.77482H12.6424C12.622 8.91685 12.6324 9.24413 12.6631 9.75732C13.0007 9.75732 13.4611 9.58249 14.0239 9.22238C14.0239 8.9276 14.0751 8.68772 14.1772 8.51287C14.474 8.04356 14.7911 7.81443 15.1288 7.81443C15.5075 7.81443 15.5279 8.1092 15.2004 8.69845C15.8552 8.40398 16.3363 8.26196 16.6431 8.26196H16.8067C17.4618 8.26196 17.8299 8.46932 17.9119 8.8733L18.5462 8.77482H18.6383C18.9966 8.9604 19.4466 9.08066 19.9786 9.13494C20.0094 9.60425 20.9814 9.84445 22.8845 9.84445C24.1328 9.84445 24.6956 10.1282 24.5625 10.7067C25.1356 10.7067 26.7624 10.7941 29.4431 10.9797L29.2792 11.2413L28.9519 11.5143L28.9111 11.5907C29.5964 11.8309 29.9852 11.9508 30.0979 11.9508H30.9062L31.0595 12.6493H31.9395C32.0522 12.6493 32.0726 12.7039 32.0111 12.8131H32.1851C34.0986 12.4091 35.4389 12.2128 36.2263 12.2128C36.3183 12.2674 36.4003 12.2892 36.4514 12.2892L36.4003 12.3873C36.2979 12.5729 35.9505 12.6931 35.3673 12.7367C32.5227 13.4897 31.0187 14.0137 30.8651 14.2974C31.2335 14.4173 31.3767 14.5376 31.3051 14.6575L31.2539 14.7557C31.029 14.9848 30.7731 15.105 30.4967 15.105H29.9343C29.2895 15.105 28.9007 15.2142 28.7676 15.4434C28.246 15.9127 27.1716 16.1418 25.5448 16.1418L25.1764 16.0654C25.4732 15.5415 25.0229 15.2796 23.8361 15.2796H23.6825C22.4854 15.7489 21.7794 15.978 21.585 15.978H20.613C19.5082 15.978 18.5667 15.6832 17.7891 15.105C17.2878 15.1596 16.9502 15.3342 16.7863 15.6397H16.0498L15.9371 15.5415L15.272 17.3096C15.1083 17.6044 14.7707 18.1062 14.2488 18.7939C13.4508 21.2604 12.8984 22.7772 12.5912 23.345C12.3152 23.5849 12.1308 23.7051 12.0592 23.7051C11.7932 24.207 11.65 24.6983 11.6193 25.1894C11.0976 26.3133 10.7701 27.2848 10.6372 28.0814C9.94129 29.3148 9.75725 29.9258 10.0744 29.9258C10.4325 30.3405 10.4837 30.7773 10.2277 31.2356C9.42971 32.6543 9.12287 34.0622 9.31727 35.4484H9.13293C9.12287 35.5683 9.10246 35.6557 9.07168 35.7103H9.15364L9.31727 35.4484H9.38888C9.39923 36.6815 9.13293 37.7621 8.59087 38.7008L7.85412 39.9995C7.00493 41.5163 5.63379 43.2844 3.74101 45.2816H3.49543C3.40341 45.2816 3.39305 45.2162 3.46465 45.0963ZM0.9375 44.3975L1.24433 43.8739C1.47986 43.6338 1.72515 43.4592 2.0015 43.35H2.15507C2.43142 43.35 2.54386 43.4371 2.51309 43.612L2.2675 44.0374C2.03227 44.4521 1.72515 44.6595 1.34671 44.6595H1.25469C1.16267 44.485 1.06029 44.3975 0.9375 44.3975ZM30.9779 14.8431L31.0595 14.6575H30.9779L30.8651 14.8431H30.9779ZM7.81329 12.0272C7.95649 11.787 8.21214 11.6125 8.59087 11.5143C8.72372 11.5143 8.92848 11.6235 9.22525 11.8527L9.07168 12.1254C8.81574 12.5839 8.4373 12.8131 7.93607 12.8131C7.55734 12.8131 7.51651 12.5511 7.81329 12.0272ZM12.1516 7.65095C12.3152 7.41077 12.4584 7.29053 12.5912 7.29053H12.7652C12.8575 7.31262 12.888 7.45432 12.8368 7.72733C12.612 7.91291 12.4788 8.00001 12.448 8.00001H12.182C12.1104 8.00001 12.1004 7.88009 12.1516 7.65095ZM44.2779 9.54998H44.5951C44.6871 9.56071 44.7282 9.6153 44.7179 9.71346L44.6259 10.1282L44.2167 10.2263L44.0427 9.88831L44.0835 9.71346C44.1143 9.60426 44.1859 9.54998 44.2779 9.54998ZM41.4232 10.292H41.6484C42.1088 10.292 42.2928 10.5104 42.2111 10.9576C42.16 11.187 41.9656 11.4051 41.6075 11.6125H41.2288C41.2392 11.5472 41.1776 11.3288 41.0448 10.9576C41.2696 10.5757 41.3924 10.3573 41.4232 10.292ZM28.7259 10.8812H29.207L29.1866 11.2959L29.1659 11.4597L28.767 11.5361H28.5214L28.5315 11.1214C28.6238 11.1214 28.6954 11.045 28.7259 10.8812ZM44.2167 11.3723H44.2883L44.2779 11.5361L43.4595 13.195C43.3059 13.9919 42.9068 14.8431 42.2623 15.7489C42.078 16.7204 41.4744 17.6587 40.4616 18.5648C39.0188 21.5006 37.8217 23.6505 36.8497 25.0146C35.6324 26.0078 34.6912 27.0885 34.0361 28.2562C33.8213 28.2562 33.4018 29.0857 32.7677 30.7335C32.0717 32.2724 31.3761 33.0472 30.6701 33.0472C30.4142 33.3856 29.8207 34.5426 28.8999 36.518C28.419 37.0091 27.8971 37.9259 27.3346 39.2465C26.8535 39.6283 26.5363 40.2068 26.3831 40.9817L26.2807 41.4838C26.2499 41.6037 26.1887 41.6584 26.0863 41.6584H25.9431C25.9735 41.4838 25.9327 41.3964 25.8407 41.3964C25.6155 41.3964 25.4007 41.7783 25.2063 42.5531C24.9607 44.3322 24.8276 45.3037 24.7971 45.4564L24.6539 46.1113C24.6332 46.2202 24.5719 46.2748 24.4595 46.2748C24.3264 46.2748 24.2855 45.4454 24.3367 43.7976C24.2855 43.7976 24.2855 43.7212 24.3264 43.5574C23.9683 43.9393 23.4668 44.354 22.8224 44.7905C22.1572 45.6527 21.482 46.8315 20.7964 48.3484C20.776 48.7306 20.7453 49.025 20.6941 49.2545L20.6532 49.4179C20.602 49.6799 19.9881 50.7606 18.7909 52.6486C18.2486 53.751 17.8089 54.3074 17.4506 54.3074C17.113 54.4602 16.6422 55.0933 16.059 56.2065C15.4246 57.3524 14.9746 57.9309 14.6982 57.9309L14.6675 57.7889L14.6778 57.6907C14.7494 57.3089 14.8619 57.0031 15.0154 56.785L14.8722 56.6975C14.7802 56.7086 14.0538 57.7561 12.693 59.8518C12.2119 60.5609 11.6491 61.1612 11.0148 61.6523C10.6567 62.3836 10.3804 62.7437 10.1656 62.7437C10.0736 62.7437 10.0428 62.6894 10.0632 62.5802L10.0839 62.4053C10.4419 62.0017 10.9943 61.0959 11.7207 59.6879C12.6315 58.7165 13.1943 57.7018 13.4091 56.6212C14.0026 55.77 14.3299 55.1586 14.4015 54.7985C14.4834 54.3948 14.5038 54.0455 14.4527 53.7289C15.5681 51.7863 16.2022 50.433 16.3558 49.6692L16.2126 49.5928C16.1922 49.7017 16.1306 49.7563 16.0182 49.7563C15.9158 49.7563 15.875 49.7017 15.8954 49.5928C15.9774 49.1781 16.8573 47.6064 18.5453 44.8669C19.1389 43.7212 20.07 42.1495 21.3489 40.1523C21.3592 39.8575 21.3796 39.6065 21.4104 39.421L21.4512 39.2465C21.5024 39.0173 21.8604 38.3842 22.5256 37.3474L22.6792 36.9327C22.628 36.9327 22.4948 36.4634 22.28 35.5248C22.1164 35.2739 22.0548 35.0226 22.106 34.7717L22.1368 34.619L22.9144 33.0472C23.2724 32.5997 23.4668 32.3052 23.4976 32.1414L23.5284 31.9776L23.5692 27.8415C23.7328 27.0446 23.61 26.5207 23.1907 26.2591C23.2623 24.3925 23.1396 23.4539 22.8224 23.4539C22.9552 22.4064 22.9247 21.8825 22.7404 21.8825L22.9348 21.2932L22.9656 21.1294C22.7916 20.2126 22.72 19.6562 22.7508 19.4706L22.7712 19.3942C22.7916 19.2957 23.2724 18.6083 24.2036 17.3314C25.0016 15.9452 25.6259 15.2578 26.0863 15.2578H26.9355C27.1299 14.7995 27.3754 14.5047 27.6518 14.3627H27.7234C27.8666 14.6793 28.0199 14.832 28.1838 14.8431C28.6646 13.3477 28.9919 12.6057 29.1659 12.6057H29.2375C29.391 12.6057 29.3706 13.2388 29.1659 14.5047C29.1558 15.0069 29.1147 15.7271 29.0431 16.6657C29.4014 16.9713 29.4526 17.7461 29.207 18.9795L29.1659 19.2304C28.675 20.3653 28.4087 21.0531 28.3578 21.2932C28.327 21.4678 28.4294 22.1009 28.675 23.1923L28.6031 23.607C28.419 23.607 28.235 23.7815 28.0406 24.1198L28.3782 25.9425L28.3066 26.2591C28.2758 26.4118 28.0915 26.8048 27.7642 27.4268C27.887 27.4268 27.9687 27.6449 28.0199 28.0814H28.0915C28.153 27.8087 28.6134 27.0339 29.483 25.7676C29.565 25.3529 30.015 24.6327 30.8438 23.607C31.335 22.188 31.8773 21.173 32.4605 20.562C33.0641 19.8089 34.0977 18.8703 35.5812 17.7461C35.3256 17.7461 35.2028 17.6915 35.2333 17.5716L35.2537 17.4952C35.3868 17.3531 35.5709 17.0694 35.7961 16.6657C35.5608 16.5673 35.4688 16.4038 35.5096 16.1636L36.4813 14.4284L37.7501 13.8498C37.8013 13.6425 38.5481 13.3698 40.0112 13.0204L40.7992 12.191L40.9732 12.1254C41.2904 12.2346 41.4643 12.3984 41.4847 12.6057L41.454 12.7802L41.2904 13.195L42.0372 12.6057H42.2623C42.1804 13.0094 42.2623 13.2606 42.5079 13.3588C42.8455 12.9769 43.2444 12.3655 43.7255 11.5361C43.9199 11.4269 44.0835 11.3723 44.2167 11.3723ZM26.5263 12.6057C26.8331 12.6057 27.0174 12.7474 27.0683 13.0204L27.0378 13.195C26.9455 13.6207 26.7923 13.8716 26.5775 13.948H26.2603C25.9531 13.6753 25.8203 13.4241 25.8715 13.195C25.9431 12.802 26.1679 12.6057 26.5263 12.6057ZM36.6041 24.6984C36.5837 24.7855 36.5017 24.9275 36.3585 25.1131H36.4506L36.6553 24.7747L36.6757 24.6984H36.6041ZM14.9642 57.3742L14.9438 57.527H15.0154L15.0566 57.3742H14.9642ZM54.7851 7.86901H55.0715L55.0511 8.25123L55.0307 8.40398L54.6623 8.46932H54.5191L54.5087 8.17455C54.6215 7.96719 54.7135 7.86901 54.7851 7.86901ZM55.2147 9.29876H55.4195C55.3683 10.0083 55.3786 10.6631 55.4399 11.2524C55.5523 11.4269 55.573 11.6781 55.5115 12.0054L55.3887 12.6057C55.7059 13.2496 56.4938 14.0244 57.7522 14.9412C60.4226 18.3028 61.5073 21.2058 61.0061 23.6612C60.9037 24.1962 60.6785 24.622 60.3409 24.9382L60.2489 25.3968C59.8601 27.3394 58.9494 29.293 57.517 31.2574C55.5935 33.3202 54.2631 34.7061 53.5368 35.3938C52.4316 36.2343 51.296 37.1946 50.14 38.2532C50.0172 38.286 49.0245 39.0391 47.1521 40.5124C46.5894 40.8617 45.423 41.44 43.6326 42.2369C41.8623 43.6773 40.2971 44.8015 38.9464 45.6199C37.9948 46.7223 37.34 47.2791 36.992 47.2791C36.0511 47.7702 35.5703 48.0646 35.5395 48.1738C34.7312 49.7781 33.9639 50.5857 33.2372 50.5857C32.6236 51.448 32.2244 51.9283 32.0404 52.0154H31.8969L31.8457 51.8627L31.9481 51.3388H31.7333C30.1985 53.2053 29.2673 54.4819 28.9297 55.1697L28.633 55.246L28.6025 55.0933C28.6537 54.8641 29.3493 53.5872 30.7 51.2624C30.7509 51.055 30.8225 50.7713 30.9249 50.433H30.8533C30.6385 50.575 29.8505 50.7713 28.4898 51.0333C27.3849 51.5461 25.717 52.3756 23.4866 53.5215C23.4354 53.5215 23.3638 53.5436 23.2615 53.5979C23.1795 53.5436 23.1183 53.5215 23.0671 53.5215L23.0978 53.2924C23.7219 53.0522 24.1926 52.6814 24.5302 52.1682C24.2438 52.1682 23.2511 52.6486 21.5631 53.5979C21.2867 53.6743 20.2943 54.1218 18.606 54.9512C17.5932 55.1261 16.6824 55.377 15.8537 55.6936H15.7821L15.7513 55.5516L15.7717 55.3988C16.7644 54.8424 18.0024 54.3185 19.4655 53.8163C21.348 52.8559 22.8623 51.9066 23.9982 50.9569C24.8474 50.7824 26.065 49.9312 27.661 48.403C27.9986 48.1631 29.3493 47.4318 31.7025 46.2202C32.8588 45.3144 33.5032 44.5396 33.6364 43.8957C33.4728 43.8193 33.3704 43.6337 33.3192 43.3607C33.9843 42.193 34.322 41.5709 34.3424 41.4838C34.1684 41.582 34.0148 41.6366 33.882 41.6366H33.8204L33.5852 41.0363H33.442C33.4216 41.1562 32.9916 41.5602 32.1425 42.2369H31.7844L31.8049 42.1605C32.1016 41.6255 32.6236 40.8507 33.3908 39.8357L33.1248 39.7593C33.1861 39.4538 33.7488 38.5259 34.8232 36.9762C35.5088 35.372 36.0715 34.1604 36.5112 33.3638C37.8619 32.5015 38.6803 31.323 38.9771 29.8277C39.0487 29.5111 39.3967 29.2166 40.0207 28.9329C40.2047 28.9329 40.6651 27.874 41.4123 25.7676C42.8754 23.5631 43.8782 22.461 44.4102 22.461C44.6454 22.2316 44.9626 21.6858 45.3617 20.8021C45.3718 20.5291 45.3922 20.3107 45.4333 20.1255L45.5049 19.7543C46.3849 18.9031 46.8861 18.15 47.0193 17.4952L47.6329 16.1418L46.0982 15.3888C43.3154 14.6357 41.7602 14.1882 41.4327 14.0354C41.3202 13.8499 41.2895 13.6753 41.3202 13.5115C41.4634 13.5115 41.5862 13.2824 41.6783 12.8349C40.8391 12.6275 39.9899 12.5293 39.1203 12.5293V12.1582L39.1407 12.0818L39.6523 12.0054C39.642 12.06 39.6523 12.0818 39.7035 12.0818L39.7343 11.9291L40.2151 12.0054H40.5631C40.8187 12.0054 41.0335 11.9073 41.1871 11.7107C40.8903 11.6125 39.9899 11.5033 38.5064 11.4051C38.1688 11.1542 38.0152 10.9797 38.046 10.8812L38.0664 10.7285C38.2507 10.7285 38.67 10.7502 39.3351 10.8048C40.0411 10.7067 40.5631 10.6521 40.9007 10.6521H43.295C44.8398 10.5539 45.6686 10.4993 45.8017 10.4993H47.8481C49.4748 10.4993 51.1016 10.8266 52.7284 11.4815L53.6391 11.787C53.7516 11.2852 53.8744 11.034 54.0176 11.034H54.1507C54.2939 11.4926 54.3555 11.7435 54.3451 11.787C54.4576 11.7327 54.5292 11.7107 54.5803 11.7107L54.5395 11.5579L54.6519 11.034C54.8875 9.87726 55.0715 9.29876 55.2147 9.29876ZM52.8104 9.60426C53.1888 9.60426 53.3527 9.75732 53.2912 10.0518C53.2604 10.2156 53.2604 10.3355 53.2912 10.434C53.1787 10.6849 52.9843 10.8048 52.7284 10.8048C52.4011 10.5104 52.2476 10.3137 52.268 10.2045C52.3295 9.94258 52.5136 9.74628 52.8104 9.60426ZM36.6544 11.1103H37.0024V11.4815L36.992 11.5579L36.46 11.7107L36.4192 11.5579L36.4804 11.2524C36.5112 11.1542 36.5725 11.1103 36.6544 11.1103ZM37.5548 12.9876H37.688C38.2507 12.9876 38.5064 13.1404 38.4552 13.4351C38.2507 13.8388 37.9744 14.0354 37.6264 14.0354H37.4116C37.2784 13.9808 37.2376 13.8388 37.2888 13.5879L37.3092 13.5115L37.5548 12.9876ZM52.974 18.6957C52.8615 19.0884 52.3807 19.6451 51.5312 20.3546C51.5008 20.4745 50.9584 21.2711 49.9045 22.7665C49.3621 24.6655 48.8505 25.6149 48.3596 25.6149C47.7969 25.8551 47.4081 26.4882 47.2137 27.5032C46.2109 29.2167 45.6585 30.3187 45.5561 30.8098C44.9729 31.4212 44.369 32.3488 43.7347 33.5929C43.6838 33.5929 43.5098 33.7895 43.1926 34.1932L43.1515 34.7171L43.1414 34.7935C43.1311 34.8917 42.5582 35.7432 41.4327 37.3474C41.3202 37.6858 41.2486 37.9695 41.1974 38.1768L40.8699 39.8357H40.9314C43.0902 38.4716 45.1366 36.9109 47.0909 35.1647C47.2853 35.1647 47.633 34.7171 48.1241 33.8113C49.1576 33.1018 51.3368 31.1703 54.6519 28.0268C55.3579 27.0557 55.7775 26.2044 55.9311 25.4732L56.0539 24.7965C56.4222 22.9956 55.7162 21.2604 53.9255 19.6015C53.7312 19.154 53.414 18.8485 52.974 18.6957ZM52.4316 19.0013C52.4216 19.0559 52.3704 19.1322 52.2988 19.2304L52.2884 19.3068H52.36C52.3704 19.2522 52.4112 19.1758 52.4828 19.0776L52.4932 19.0013H52.4316ZM31.2933 43.2954H31.6513V43.6666L31.6105 43.8193L31.2421 43.8957H31.0989L31.1193 43.5138L31.1397 43.4371C31.1604 43.339 31.2116 43.2954 31.2933 43.2954ZM23.8754 52.9869C23.8651 53.085 23.8958 53.1397 23.9775 53.1397L24.0902 52.9869H23.8754Z" fill="#EB8A24"/>
<path d="M68.1141 48.7193L68.1756 48.5555C68.0732 48.5555 67.9913 48.6101 67.93 48.7193H68.1141ZM93.6626 14.3189L93.7345 14.1552H93.6525L93.5809 14.3189H93.6626ZM79.7273 25.6911H79.809L79.8705 25.6039C79.809 25.6039 79.7273 25.5711 79.635 25.5055H79.5533L79.5122 25.6039C79.5737 25.6039 79.6453 25.6364 79.7273 25.6911ZM61.975 44.943L62.0162 44.8666H61.8318L61.8011 44.943H61.975ZM69.516 29.5655H69.2704C68.8304 29.5655 68.0833 29.7403 67.0297 30.0787H66.5793C66.4669 30.0787 66.4361 30.0241 66.4873 29.9038L66.5793 29.7182C68.7384 28.9873 69.9048 28.4741 70.0684 28.1576H69.0044C68.9121 28.1576 68.8917 28.0922 68.9224 27.9723L69.0044 27.7974C69.9353 27.3827 70.4468 27.1754 70.5392 27.1754L70.6824 26.8263C70.7948 25.8331 70.938 25.0365 71.1223 24.4362L71.2247 24.2067C71.5623 23.934 71.7464 23.7702 71.7771 23.7156C72.0739 22.2534 72.2887 21.3801 72.4319 21.0857C72.8616 19.132 73.1891 17.9425 73.4143 17.4949L73.5164 17.2765H73.6599L73.8235 17.4186H73.8951C74.3147 16.567 74.3658 15.956 74.0486 15.5959C74.2123 14.8429 74.2635 14.4171 74.1919 14.3189H73.9563C73.6599 14.3189 73.0767 14.4499 72.2171 14.7119H71.7771L71.8999 14.4717C72.3399 14.1334 73.1379 13.7622 74.2942 13.3585C74.3863 13.173 74.2531 13.042 73.8951 12.9656C74.0691 12.6273 74.3963 12.3653 74.8774 12.158C74.8671 11.9071 75.0206 11.4595 75.3582 10.8046C75.4298 10.6411 75.5014 10.1936 75.5834 9.45129L75.7062 9.21141C75.9515 9.21141 76.0743 9.34239 76.0743 9.61507H76.1462C76.1462 9.34239 76.1767 9.13473 76.2483 8.98197C76.2994 8.86204 76.3711 8.80743 76.4631 8.80743H76.6066C76.6066 8.93841 76.627 9.23318 76.6782 9.69145C76.9954 9.69145 77.4046 9.52765 77.9058 9.21141C77.8753 8.9384 77.9058 8.73107 77.9978 8.56727C78.2334 8.14183 78.4994 7.92341 78.8062 7.92341C78.9393 7.92341 79.021 7.96696 79.0722 8.04334C79.2666 7.46514 79.4305 7.03937 79.5634 6.76668L79.7373 6.42836L80.0238 5.99156C80.2797 5.99156 80.2389 6.42835 79.901 7.31238C79.8397 7.71604 79.7885 8.08721 79.7373 8.43628C79.9421 8.37095 80.1057 8.33811 80.2389 8.33811H80.3717C80.9753 8.33811 81.3233 8.52369 81.4153 8.8838L81.9781 8.80743H82.0497C82.4181 8.97123 82.8376 9.08044 83.298 9.13472C83.3593 9.56048 84.2496 9.76785 85.9788 9.76785C87.1144 9.76785 87.6464 10.0298 87.5647 10.5644C88.0863 10.5644 89.5699 10.6411 92.0257 10.8046L91.903 11.0448L91.6062 11.2957L91.5654 11.3721C92.2098 11.5794 92.5885 11.6886 92.6806 11.6886H93.4173L93.591 12.3325H94.4097C94.5017 12.3325 94.5221 12.3764 94.4813 12.4745H94.6349C96.3433 12.1144 97.5609 11.9288 98.2876 11.9288C98.3693 11.9834 98.4308 12.0052 98.482 12.0052L98.4204 12.0816C98.3388 12.2561 98.042 12.3653 97.5304 12.3982C95.003 13.0856 93.6626 13.5659 93.5194 13.8279C93.857 13.926 94.0005 14.0352 93.9493 14.1552L93.9082 14.2426C93.7138 14.461 93.4786 14.5699 93.2229 14.5699H92.7113C92.1278 14.5699 91.7802 14.6683 91.6882 14.8646C91.2275 15.2904 90.2658 15.5085 88.8027 15.5085L88.4651 15.4321C88.7003 14.9521 88.2807 14.7119 87.1963 14.7119H87.0531C85.9888 15.1373 85.3648 15.3557 85.1908 15.3557H84.3108C83.298 15.3557 82.4181 15.0938 81.6813 14.5699C81.2209 14.6137 80.9345 14.7665 80.8014 15.0392H80.1261L80.0238 14.9628L79.5326 16.5563C79.461 16.7091 79.3382 16.9164 79.1746 17.1784C79.103 17.4732 79.0417 17.7787 78.9701 18.117L78.9086 18.2152C78.8881 18.248 78.7449 18.4225 78.4686 18.7391C78.0082 20.4961 77.6706 21.5985 77.4558 22.0461C77.4146 22.0786 77.3738 22.1114 77.343 22.1442C77.7422 23.0718 77.7014 24.0104 77.2202 24.9819C79.1337 24.9819 80.2797 25.2438 80.6377 25.7674C81.4973 26.9352 82.2544 27.5794 82.8989 27.7211C83.0933 28.2014 83.7072 28.8453 84.7304 29.6419C84.802 30.3731 85.2624 31.6612 86.122 33.5163C86.6028 35.4917 86.5108 37.38 85.8252 39.1588C85.0168 40.7959 83.7072 42.3783 81.9065 43.8955C81.4357 43.8955 80.8937 44.1028 80.2898 44.5176C78.1925 45.9255 76.4427 46.8313 75.0206 47.235C71.1019 48.4138 68.6564 49.003 67.6845 49.003L67.1217 48.9159L67.1729 48.8175C67.2545 48.6429 67.4185 48.5555 67.6537 48.5555L67.7356 48.381C67.7049 48.381 67.4185 48.3264 66.8761 48.2172C65.6893 48.2718 64.891 48.2939 64.4818 48.2939L64.001 48.381C64.0317 48.3264 63.7554 48.2939 63.1722 48.2939C62.6298 47.5844 61.9138 47.235 61.0031 47.235C60.3995 47.235 58.5576 46.2092 55.478 44.1574L55.5804 43.9826C55.6316 43.8627 55.7132 43.7974 55.826 43.7974H55.918C56.1736 43.7974 56.4192 43.9501 56.6751 44.2446C57.6983 44.2446 58.4759 44.5939 58.9976 45.3034C60.1539 45.4234 60.911 45.5761 61.2895 45.7507L61.8215 45.6418L61.8523 45.5654L61.3099 44.8666L61.4839 44.7031C62.149 44.7031 63.1314 44.7578 64.4306 44.8666C65.2185 44.605 65.771 44.3648 66.0985 44.1574C67.3468 44.1028 68.7485 43.9608 70.314 43.721L70.3448 43.6443C70.1808 43.5679 69.6488 43.5354 68.7588 43.5354C67.7356 42.7823 67.1933 42.4112 67.1421 42.4112C66.8148 42.4112 66.7637 41.8219 66.9785 40.6431C67.6025 39.2898 67.7969 38.6131 67.5617 38.6131C67.7049 38.3183 67.93 37.3907 68.2472 35.8083L68.4313 35.4482C68.462 35.3936 68.5029 35.3172 68.5541 35.2408C69.0556 34.1494 69.2089 33.6037 68.994 33.6037C69.3216 32.9271 69.4648 32.294 69.434 31.6937L69.8024 31.0498C70.0276 30.0566 69.9353 29.5655 69.516 29.5655ZM76.1666 8.09795C76.095 8.09795 76.0743 7.98905 76.1154 7.78169C76.2483 7.56329 76.3711 7.45409 76.4838 7.45409H76.6371C76.7087 7.48692 76.7394 7.61789 76.7294 7.85807C76.535 8.02156 76.4222 8.09795 76.3915 8.09795H76.1666ZM72.4423 11.765C72.5343 11.5577 72.7595 11.3942 73.0971 11.2957C73.2095 11.2957 73.4143 11.4049 73.7007 11.6123L73.5882 11.8414C73.3731 12.2672 73.0355 12.4745 72.5855 12.4745C72.2479 12.4745 72.1967 12.2343 72.4423 11.765ZM67.0501 27.0119L67.1013 26.9134C67.3057 26.5098 67.5821 26.3131 67.93 26.3131C67.9096 26.3459 68.1345 26.4662 68.6052 26.6735L68.5336 26.8263C68.3085 27.2846 67.8889 27.5465 67.2853 27.6119H67.1933C66.9581 27.4919 66.9169 27.2956 67.0501 27.0119ZM64.625 30.002L64.9934 29.3799H65.1674L65.5869 29.4673L65.505 29.6419L65.1878 30.0787H64.7581L64.625 30.002ZM66.5897 43.1753L66.9785 42.7495H67.2241C67.3161 42.8695 67.4081 42.9351 67.4901 42.9351L67.4389 43.0222L67.1625 43.459H66.5385C66.5693 43.3934 66.5897 43.2952 66.5897 43.1753ZM74.7851 37.7401C75.2662 37.7401 75.1843 38.8533 74.5295 41.0689C74.4579 41.0689 74.3963 41.1014 74.3658 41.167L73.3835 43.1753L73.1687 43.7974C74.9283 43.5026 75.9926 42.9679 76.3711 42.2146C78.2641 41.2216 79.4713 40.2066 79.9933 39.1588C80.7197 37.7073 80.7401 36.6705 80.0545 36.0702C79.0722 36.0702 78.5402 35.3936 78.4585 34.0402C77.9366 33.6583 77.077 33.1562 75.8799 32.5559C75.6139 33.2982 75.4195 33.8001 75.2866 34.062C75.2354 34.7715 75.0718 35.4264 74.775 36.0156L74.7034 36.1466C74.6215 36.7687 74.6523 37.3033 74.7851 37.7401ZM106.448 3.09962C106.52 3.09962 106.612 3.19777 106.724 3.39408C106.581 3.62353 106.469 3.74344 106.376 3.77627H106.09V3.39408L106.141 3.17599C106.172 3.17599 106.274 3.15422 106.448 3.09962ZM104.167 4.6057C104.504 4.6057 104.627 4.78022 104.555 5.1296L104.484 5.42407L104.351 5.80629H103.778C103.563 5.53329 103.461 5.32594 103.481 5.20601C103.593 4.80203 103.829 4.6057 104.167 4.6057ZM106.602 4.74742H106.673C106.827 4.74742 106.745 5.63143 106.428 7.38875C106.663 7.38875 106.755 7.50868 106.704 7.75959L106.694 7.83597C106.663 7.94517 106.54 8.02157 106.305 8.06544L106.254 8.28353C106.162 8.76389 106.213 9.09118 106.407 9.26571L106.387 9.3424C106.111 10.0408 105.957 10.4117 105.947 10.4663C105.896 11.9399 105.773 13.1622 105.578 14.1552L105.527 14.3736C105.333 15.3668 104.883 16.4471 104.187 17.6149C103.962 18.2262 103.665 19.2519 103.287 20.6927C103.297 21.7948 103.276 22.5043 103.215 22.7991L103.184 22.9519C103.113 23.3227 102.755 23.8466 102.089 24.5233L101.936 24.9819L101.813 27.0119L101.557 28.2885C101.517 28.5287 101.445 28.7796 101.332 29.0416L101.24 30.2422C100.913 30.9517 100.483 32.305 99.9407 34.3022C100.8 34.6841 101.179 35.1098 101.087 35.5791L100.984 36.1138C101.547 36.1138 101.793 36.2886 101.721 36.6377V36.7141C101.527 36.7359 101.414 36.8122 101.383 36.9325C101.363 37.0852 101.66 37.1616 102.263 37.1616H102.898L103.235 37.238L103.164 37.5328C102.427 37.6309 101.701 37.8601 100.995 38.2094C99.2042 38.5257 98.2527 38.733 98.1299 38.8205C98.0376 38.8205 97.966 38.9404 97.9148 39.1916L97.7204 40.1738C97.8127 40.8615 97.8331 41.3526 97.7716 41.6689C97.7204 41.8873 97.1987 43.317 96.2063 45.958C95.398 46.7221 94.876 47.6715 94.6509 48.8175C94.3849 49.6144 94.1393 50.018 93.9144 50.018C93.7712 50.018 93.7608 49.6907 93.8937 49.0469H93.7505C93.454 49.3631 93.0652 50.2911 92.574 51.8297C91.7964 53.0848 91.2233 54.1873 90.8449 55.1366H90.6298L90.6709 54.9839C90.8549 54.0124 91.3869 52.5174 92.2773 50.4766C92.2364 50.1708 92.2773 49.7236 92.4001 49.1233C92.6353 48.4138 92.7684 47.9445 92.8196 47.6936C92.8501 47.5297 92.7785 47.0715 92.6045 46.3402C92.9832 45.358 93.2185 44.6268 93.3105 44.1574C93.4232 43.6225 93.4845 43.0768 93.5049 42.4986L93.106 42.8041H93.0344V42.4222C93.1161 41.9965 93.5049 40.6213 94.2109 38.2858C93.9656 38.2312 93.7812 38.2094 93.6688 38.2094C92.3489 38.4168 91.6021 38.515 91.4077 38.515L91.4281 38.4386C91.3153 38.1438 91.0698 37.991 90.6709 37.991H90.5993C89.6273 38.1873 89.1054 38.4386 89.0441 38.7441C88.5834 39.2787 88.205 39.9336 87.8878 40.6977C86.7522 41.3962 86.0462 42.1274 85.7494 42.8805C85.6675 43.2952 85.3503 43.6989 84.7979 44.0811C84.7058 44.0811 84.6647 44.0265 84.6955 43.9283L84.7875 43.4808L84.9207 43.0986H84.6443C83.7951 44.4958 82.8027 45.7507 81.6464 46.8641C81.1964 47.5626 80.8892 47.9334 80.7152 47.988H80.6436V47.6172C80.828 47.3877 81.1759 46.8095 81.6976 45.8817C82.7003 44.8666 83.3143 43.8191 83.5291 42.7277C83.9895 42.0728 84.2351 41.6253 84.2863 41.3744C84.2351 40.8177 84.1943 40.545 84.1635 40.545C84.8286 39.3772 85.1763 38.6788 85.2275 38.4386C85.0742 38.4386 84.5831 38.264 83.7747 37.9147H83.7031C82.3935 38.1656 81.6976 38.4604 81.626 38.8205L80.7664 38.8861H79.3545C79.2728 38.8861 78.9352 38.6895 78.3517 38.2858H76.5921V37.9147C76.8069 37.9147 77.0013 37.7619 77.1649 37.4671L76.5509 37.3908C76.4998 37.3908 76.2545 37.4125 75.8246 37.4671C75.7938 37.4671 75.6097 37.4454 75.2822 37.3908C74.7605 37.4889 74.2081 37.5328 73.6246 37.5328H72.4278L72.4583 37.3908C72.5198 37.096 73.8398 36.8233 76.4282 36.5613C77.8096 36.1466 78.5565 35.8193 78.6689 35.5791C78.6997 35.4153 79.4364 35.2736 80.8688 35.1316L81.1348 34.9025L81.0428 34.6841L81.0836 34.4549C83.8667 34.204 85.7903 34.0074 86.8442 33.8547C87.2534 33.6473 87.7138 32.9706 88.2358 31.8246C88.9622 30.7661 89.351 30.144 89.3817 29.9477C89.4329 29.7403 89.443 29.4127 89.4329 28.9652C90.2206 27.5465 91.6225 25.2874 93.6176 22.1988C93.8529 21.8822 94.2109 21.031 94.692 19.6449C94.9888 19.4375 95.3364 18.859 95.7252 17.9097C96.196 17.5057 96.728 16.5128 97.3112 14.9082C97.6695 14.5045 98.2527 14.0459 99.0607 13.5441C99.1427 13.2711 99.5111 12.9984 100.156 12.7254C100.258 12.1908 100.729 11.4706 101.578 10.5427C102.437 8.68751 103.061 7.75959 103.461 7.75959C103.798 7.85807 103.993 7.91268 104.064 7.91268C104.422 7.79244 104.688 7.25778 104.873 6.32988L105.179 6.25351C105.271 6.46086 105.302 6.86485 105.282 7.45409C105.466 7.45409 105.824 6.60289 106.356 4.90017L106.602 4.74742ZM104.77 15.7269L104.699 16.0324H104.77C104.852 15.8579 104.903 15.7597 104.913 15.7269H104.77ZM97.2295 24.5997C96.0628 27.099 95.2956 28.6707 94.9376 29.3364C94.5384 29.6636 93.8632 30.6679 92.9217 32.3486C92.6045 32.7087 92.3589 33.0363 92.1645 33.3307H92.4512C92.8912 33.1126 93.8428 32.9599 95.2852 32.8725V32.5013L95.5308 31.3007C95.7252 30.3514 96.1448 28.9434 96.7895 27.0882L97.26 24.7524L97.3624 24.5997H97.2295ZM102.673 34.3786H103.307C103.327 34.7058 103.327 34.9353 103.307 35.0552L103.276 35.2844C102.939 35.3825 102.713 35.4371 102.601 35.4371H102.253L102.284 34.9025L102.304 34.8261C102.519 34.6295 102.642 34.4767 102.673 34.3786ZM81.3292 34.6841L81.3088 34.7605H81.452L81.4724 34.6841H81.3292ZM104.279 36.2558H104.699L104.678 36.6377L104.647 36.8561H104.228C104.136 36.8561 104.095 36.7797 104.115 36.6377L104.279 36.2558ZM76.8477 37.991L76.817 38.1438H76.8889L76.9193 37.991H76.8477ZM93.3004 42.1275V42.2038H93.4333V42.1275H93.3004ZM84.9718 43.5572L84.9615 43.6989H85.0331L85.0434 43.5572H84.9718ZM117.535 0.654893C117.341 0.971451 116.747 2.67384 115.734 5.78419C114.844 7.66144 114.507 8.60009 114.731 8.60009L115.171 7.85807C115.253 7.71604 115.448 7.47588 115.755 7.11577H115.816C115.888 7.11577 115.898 7.27956 115.837 7.60684C114.865 9.87703 114.251 11.3942 114.005 12.158C113.923 13.6533 113.688 14.7226 113.299 15.3886C113.125 15.6941 112.511 17.4293 111.468 20.5942L110.424 22.1549L110.127 22.6681C108.715 25.953 108.112 27.9394 108.326 28.6269C108.5 29.0526 107.856 31.148 106.413 34.9025H106.495C107.651 33.451 108.848 32.043 110.097 30.6897C111.304 28.5723 113.596 25.7895 116.983 22.3298C118.405 21.1182 119.172 20.4197 119.274 20.2562L119.714 18.9464L119.766 18.8483C119.888 18.6627 120.052 18.4115 120.267 18.117C120.298 18.0514 120.298 18.0189 120.246 18.0189C120.799 17.0585 121.27 15.6612 121.669 13.8168L121.71 13.7404L122.027 13.3257H122.252C122.037 14.2972 122.098 14.9628 122.426 15.3011C122.477 15.2247 122.671 14.9738 123.03 14.5699H123.255C123.388 14.5699 123.398 14.6791 123.296 14.8864H123.439L124.012 14.057L124.196 13.7404C124.247 13.6423 124.319 13.3914 124.39 12.9874C124.646 12.5509 124.953 12.3325 125.301 12.3325C125.598 12.3325 125.71 12.4963 125.639 12.8129L125.547 12.9874L125.096 13.4021C124.81 14.0459 124.585 14.5153 124.421 14.8101C124.881 14.7447 125.199 14.5481 125.373 14.2315L125.731 14.2972L125.495 14.7119L125.076 15.3011L126.079 18.117C126.437 18.117 126.222 18.8044 125.424 20.1906C125.076 21.7077 124.861 22.5261 124.779 22.6681L124.646 22.908C124.513 23.1482 124.308 23.4537 124.053 23.8141L122.17 30.1876C121.689 30.6569 121.403 30.9624 121.321 31.1044C120.717 33.1451 120.328 34.335 120.144 34.6623C119.837 35.8957 119.54 36.7797 119.244 37.3144L119.182 37.3908C119.049 37.3908 118.926 37.3362 118.814 37.2162H118.742C118.251 38.242 117.883 39.1481 117.637 39.9447L116.717 40.8615C115.274 44.19 114.384 46.3074 114.056 47.235L113.985 47.3877C113.913 47.508 113.831 47.5626 113.729 47.5626H113.565C113.801 47.1586 114.21 45.3906 114.813 42.2802H114.496L114.322 42.5968L114.005 43.0115H113.852L113.657 42.6839C114.077 41.3634 114.179 40.6977 113.954 40.6977C113.483 40.6977 113.586 39.6171 114.251 37.4671C114.834 36.9325 115.151 36.6049 115.202 36.485C115.918 35.2408 116.133 34.466 115.837 34.1494C115.519 33.6366 115.683 32.5123 116.317 30.7661C116.021 30.9081 115.171 31.6719 113.759 33.0798C113.35 33.8111 112.603 34.6077 111.519 35.4917C110.158 37.0196 109.206 38.0346 108.664 38.5478C106.761 39.9554 105.4 41.0579 104.592 41.8655C104.459 42.0946 104.428 42.5529 104.49 43.2517L104.398 43.4262C104.326 43.5354 104.244 43.59 104.152 43.59H103.998C103.927 43.59 103.824 43.4262 103.712 43.0986H103.64C103.426 43.459 103.262 44.07 103.149 44.9105L103.466 44.7578H103.763C103.855 44.7578 103.886 44.8123 103.855 44.9105L103.661 45.2488C103.599 45.3359 103.446 45.4123 103.2 45.4887L103.026 46.0783L102.853 46.2421C102.474 46.2421 102.31 45.9908 102.351 45.4887C102.494 44.8887 102.413 44.5829 102.095 44.5829C101.891 44.6593 101.768 44.7467 101.717 44.8341L101.492 45.2488C101.461 45.2488 101.103 45.1942 100.417 45.074L99.4966 45.3252H99.3634C98.995 44.7685 98.7906 44.4958 98.7394 44.4958C98.8622 44.0047 98.7702 43.7645 98.463 43.7645C98.3506 43.1207 98.2175 42.5967 98.0538 42.182L98.8006 40.8615C98.6063 40.4793 98.5962 40.141 98.7598 39.8683L99.4862 38.6242C99.6501 38.3404 100.151 37.0196 100.98 34.6623C101.533 33.9749 101.87 33.5273 101.983 33.3307C102.157 33.0145 103.057 30.5698 104.664 25.9748C105.247 23.9558 106.147 21.5329 107.375 18.6955C107.426 18.597 107.508 18.5425 107.631 18.5317H107.692C107.682 18.5646 107.672 18.728 107.662 19.0228H107.733L107.784 18.9464C108.224 18.1498 109.237 16.0324 110.813 12.5727L112.204 10.8375L112.399 10.4991C112.695 9.98625 113.033 9.22216 113.422 8.19643C113.739 7.63969 114.148 6.97406 114.639 6.19892C115.09 5.08576 115.867 3.24133 116.983 0.654893L117.515 0C117.648 0 117.648 0.218403 117.535 0.654893ZM115.54 7.60684L115.345 7.9452H115.417L115.611 7.60684H115.54ZM126.856 11.2522L126.764 11.4049H126.693C126.519 11.4049 126.385 11.3285 126.293 11.1647C126.539 10.8375 126.713 10.6736 126.815 10.6736H127.122L126.856 11.2522ZM123.439 11.6669L123.255 11.9941C123.183 12.1033 123.101 12.158 122.999 12.158H122.692C122.59 12.158 122.569 12.1033 122.641 11.9941L122.682 11.9178L122.999 11.5031H123.377C123.47 11.5031 123.49 11.5577 123.439 11.6669ZM128.329 12.7365L127.889 13.4785C127.757 13.4785 127.521 13.5877 127.173 13.8168C126.887 13.8168 126.764 13.7079 126.815 13.4785L126.959 13.2276C127.04 13.0855 127.225 12.8457 127.521 12.4963H128.227C128.34 12.5727 128.381 12.6491 128.329 12.7365ZM107.303 19.3612L107.13 19.6777H107.293C107.283 19.5903 107.303 19.4811 107.375 19.3612H107.303ZM112.051 28.114C112 28.1796 111.928 28.2667 111.815 28.3649L111.734 28.5287H111.805C111.826 28.4741 111.897 28.3977 112.01 28.2885L112.123 28.114H112.051ZM119.152 36.8997L119.06 37.0524H119.152L119.244 36.8997H119.152ZM100.417 46.973C100.141 47.4205 99.783 47.6497 99.3226 47.6497H99.2406C99.0974 47.5515 99.0667 47.377 99.1486 47.1479C99.159 47.115 99.3942 46.8421 99.8546 46.3185H100.489C100.417 46.4273 100.397 46.6457 100.417 46.973ZM102.269 47.8024C102.157 47.9009 102.054 48.0208 101.983 48.1408H101.85L101.492 48.0644L101.584 47.9009L101.911 47.4862H102.218C102.3 47.4862 102.32 47.5951 102.269 47.8024ZM135.134 4.35448C135.103 4.32197 135.062 4.28915 135.011 4.2781C134.929 4.31093 134.868 4.3002 134.837 4.26738C134.765 4.16922 134.52 4.20173 134.1 4.37658L134.059 4.35448C134.11 4.3327 134.162 4.26736 134.223 4.14711C134.141 4.06 133.998 4.03823 133.783 4.09283L133.67 3.88547L133.476 3.64531C132.719 3.48151 132.299 3.40512 132.228 3.43794C131.808 3.29592 131.532 3.26311 131.419 3.31771C131.307 3.43796 131.164 3.54715 131 3.64531C130.519 3.76524 130.222 3.85264 130.13 3.88547L129.987 4.09283C129.741 4.21277 129.598 4.25632 129.567 4.24559C129.598 4.26736 129.557 4.33269 129.465 4.43116C129.22 4.51827 129.056 4.5511 128.974 4.54005C128.371 4.58392 127.931 4.64927 127.634 4.73669C127.46 4.8784 127.286 5.00938 127.102 5.10754L126.928 5.20601C126.651 5.34772 126.283 5.48973 125.813 5.63144L125.761 5.6753C125.669 5.7299 125.639 5.78419 125.69 5.86057C125.025 6.06824 124.626 6.19891 124.513 6.27561L124.472 6.29737C124.421 6.37374 124.411 6.41731 124.441 6.43908C124.216 6.58111 123.817 6.71211 123.244 6.85382C122.487 7.15964 121.924 7.35594 121.566 7.45409L121.444 7.53047L121.536 7.62863L121.597 7.66146C121.362 7.80348 120.983 7.93445 120.461 8.07616C120.472 8.08721 120.38 8.19641 120.195 8.40376C120.103 8.43627 119.858 8.50194 119.469 8.60009C119.448 8.64365 119.418 8.67645 119.377 8.69823L119.254 8.75284C118.282 8.9602 117.668 9.124 117.422 9.26571L117.392 9.27675L117.422 9.3424C117.596 9.39668 117.77 9.3749 117.934 9.27675C119.1 9.17859 119.745 9.09117 119.878 9.0148C119.888 9.0694 119.898 9.10223 119.909 9.11296C119.735 9.23321 119.653 9.3203 119.684 9.35312C119.786 9.40772 119.919 9.41877 120.083 9.39667C120.42 9.21141 120.789 9.17861 121.198 9.29854C121.29 9.41879 121.832 9.32031 122.804 8.98197C122.856 8.94946 122.907 8.87308 122.958 8.7746C123.091 8.75283 123.275 8.75283 123.51 8.7746L123.684 8.66571C123.736 8.65467 123.95 8.58902 124.349 8.49086C124.574 8.37093 125.137 8.22892 126.048 8.06544C126.467 7.84703 126.917 7.68324 127.378 7.58508C127.409 7.56331 127.491 7.49766 127.644 7.39951C127.849 7.27958 128.105 7.2685 128.401 7.38875C129.107 7.02864 129.517 6.85382 129.619 6.85382C130.57 6.76671 131.286 6.65748 131.767 6.51546C132.903 5.84983 133.578 5.42408 133.793 5.2385C133.824 5.21672 133.977 5.14035 134.274 4.99864C134.366 4.8238 134.448 4.71491 134.499 4.67104C134.837 4.54007 135.052 4.44191 135.154 4.37658L135.134 4.35448ZM144.221 8.72002H144.559C144.712 8.77462 144.753 8.9602 144.692 9.26571L144.682 9.3424L144.252 9.45129H144.15C144.047 9.45129 144.017 9.36419 144.047 9.18934L144.221 8.72002ZM145.081 10.3353H145.326C145.244 11.0666 145.418 12.027 145.858 13.2276C145.971 13.8496 145.93 14.5699 145.756 15.3886C145.623 16.076 145.48 16.7091 145.316 17.2876C145.285 17.6477 145.224 18.0952 145.122 18.6299C144.968 19.394 143.925 21.2274 142.001 24.1303H142.154C142.881 23.8684 144.006 23.05 145.51 21.6856C145.991 20.8455 146.411 20.4308 146.789 20.4308C147.26 19.8305 147.731 19.4375 148.201 19.263C148.283 18.8483 148.682 18.4008 149.399 17.9097H149.736L150.145 18.0078C150.442 17.713 150.688 17.4511 150.882 17.2002L151.005 16.6545C151.117 16.098 151.506 15.683 152.182 15.3886C152.233 15.1373 152.683 14.7119 153.542 14.1116C153.624 13.6969 154.136 13.2276 155.077 12.7037C156.233 12.5837 157.512 12.5181 158.924 12.5181C159.221 12.5181 159.671 12.8457 160.254 13.4895C160.459 13.3803 160.633 13.3257 160.786 13.3257H160.95C161.063 13.3257 161.103 13.5877 161.052 14.1116C162.27 13.4678 162.986 13.1401 163.201 13.1401H163.273L163.171 13.6858C162.976 13.6858 162.321 14.2536 161.206 15.3886C159.917 16.4254 159.17 17.2112 158.975 17.7458C157.891 18.5863 156.929 19.0556 156.08 19.1756C155.947 19.3065 155.527 19.8522 154.832 20.8019L154.811 21.2602L154.791 21.3366C154.524 22.0022 153.849 22.7227 152.754 23.5083C151.619 23.6503 150.084 24.7199 148.15 26.7278H147.976C147.731 26.7278 147.516 26.6735 147.342 26.5751C146.656 27.0883 146.186 27.6011 145.93 28.1033C145.715 28.1033 145.111 28.6051 144.119 29.6201C143.699 29.7403 142.891 30.1876 141.714 30.9734C141.438 31.148 140.855 31.2354 139.985 31.2354L139.955 31.4317C140.354 31.4317 140.712 31.7593 141.008 32.4249C141.264 32.7197 142.686 33.058 145.295 33.4182C145.981 33.9856 147.107 34.5531 148.682 35.1316C148.928 35.3825 149.153 35.7972 149.347 36.3868C149.931 36.627 150.555 36.8343 151.23 37.0089C151.834 36.9543 152.294 36.9325 152.611 36.9325H152.785C153.808 37.3254 154.791 38.0456 155.732 39.0824C155.824 39.8355 156.1 40.3483 156.54 40.6213C157.236 41.0578 157.543 41.4726 157.471 41.8765C157.338 41.9419 157.246 41.9747 157.195 41.9747C156.837 41.8545 156.591 41.7891 156.448 41.7891L156.397 42.0728C158.515 44.0265 159.927 45.1614 160.633 45.4887L160.786 45.9255L160.735 46.2093L160.295 46.2964H160.029C160.173 45.6307 158.699 44.7032 155.609 43.5136C155.22 43.0222 154.872 42.7823 154.566 42.7823C154.484 42.7823 154.146 42.8041 153.542 42.8587C152.98 42.2692 152.12 41.909 150.974 41.7891L150.954 41.8765L151.077 42.1382L151.046 42.3348H150.954C150.677 42.3348 149.675 41.8873 147.935 40.9815C146.043 40.2502 144.937 39.8901 144.61 39.8901H144.436C144.18 40.0646 143.976 40.1521 143.802 40.1521C143.444 40.1521 142.195 39.6171 140.047 38.5478C139.791 38.5478 138.87 38.253 137.274 37.6527C136.783 37.7073 136.384 37.7401 136.077 37.7401H135.903C135.105 38.122 134.542 39.137 134.205 40.7851C134.153 41.0578 134.215 41.5817 134.399 42.3348C133.836 43.459 133.386 44.6375 133.028 45.8491C132.179 46.3838 131.605 47.4098 131.299 48.9159C131.084 49.3414 130.93 49.5487 130.838 49.5487C130.726 48.9377 130.593 48.6322 130.439 48.6322L128.321 54.1327C128.178 54.6784 128.045 54.951 127.922 54.951H127.738L127.758 54.8529C128.342 52.4956 128.69 51.0876 128.782 50.6183C128.915 49.3524 128.996 48.5994 129.048 48.3702L129.252 47.2896C128.925 46.7111 128.782 46.3184 128.812 46.1111C129.15 45.085 129.375 44.2446 129.508 43.59L129.539 43.4044C129.6 43.1096 129.549 42.9241 129.396 42.8587C129.283 42.9351 129.16 42.9679 129.048 42.9679L128.976 42.7823L128.996 42.6839C129.416 41.1888 130.05 39.4536 130.899 37.4671C130.951 37.249 131.022 36.9761 131.125 36.6595C131.043 36.6595 130.797 36.4739 130.398 36.1138C129.262 36.8233 128.342 37.3033 127.656 37.5545L127.615 37.369L127.656 37.1945C127.922 37.1727 128.659 36.6049 129.856 35.4917L129.876 35.3936C129.702 34.8589 129.651 34.3675 129.733 33.9421H128.976C128.976 33.3635 128.986 33.0145 129.007 32.8725C129.201 32.8179 129.324 32.6323 129.385 32.3157C129.426 32.0648 129.324 31.8792 129.068 31.7811C128.587 32.032 128.28 32.163 128.147 32.163L128.29 31.5191C128.454 31.3228 128.608 31.0826 128.751 30.7879H128.679C127.85 31.2026 127.38 31.7483 127.247 32.4249L126.899 34.1384C126.889 34.2258 126.756 34.3239 126.52 34.4221C126.306 34.062 126.264 33.5709 126.387 32.9706L126.418 32.785C126.797 30.897 127.84 29.7293 129.559 29.271H130.071C130.408 29.271 130.859 29.3035 131.411 29.3582L131.953 29.0962C132.342 29.0962 132.987 29.1508 133.887 29.271C133.979 28.8017 134.46 27.634 135.34 25.7457C135.473 24.7963 135.555 24.2288 135.586 24.0432C136.558 22.0132 137.12 20.6271 137.253 19.8851C137.55 18.4554 137.929 17.7458 138.369 17.7458C138.747 17.4186 139.177 16.9382 139.668 16.2943C140.18 16.1523 140.61 15.8579 140.957 15.3886C141.51 14.3625 142.318 13.8496 143.372 13.8496L143.485 13.6858L143.71 12.5181H144.047C143.996 12.7254 144.16 12.9328 144.518 13.1401L144.631 12.5945C144.702 12.2782 144.784 11.5687 144.886 10.4445L145.081 10.3353ZM161.492 10.5973C161.851 10.7828 161.994 11.0666 161.912 11.4267L161.861 11.7104C161.451 11.9399 161.124 12.0488 160.879 12.0488C160.715 11.9942 160.663 11.8196 160.715 11.5141L160.837 10.9028C160.95 10.9028 161.175 10.8046 161.492 10.5973ZM142.318 11.0666H142.738C142.82 11.5359 142.84 11.8632 142.789 12.0488C142.656 12.3 142.441 12.4199 142.124 12.4199C141.704 12.2561 141.53 11.9834 141.612 11.5905L141.643 11.4267C141.786 11.1868 142.011 11.0666 142.318 11.0666ZM164.316 11.3285H164.49L164.47 11.7868L164.449 11.8742C164.429 11.9942 164.357 12.0488 164.245 12.0488H163.835V11.5905L163.856 11.4267L164.316 11.3285ZM157.154 18.4554L157.011 18.6299H157.124C157.226 18.5753 157.318 18.5535 157.39 18.5535L157.4 18.4554H157.154ZM152.243 23.5083H152.417L152.448 23.3227C152.335 23.3337 152.263 23.3994 152.243 23.5083ZM127.349 35.2954L127.533 35.6773L127.462 36.0156L127.104 36.1138C126.889 36.0156 126.797 35.9282 126.827 35.8301L126.899 35.3936L127.349 35.2954ZM157.082 41.6035L157.072 41.7127H157.246L157.267 41.6035H157.082ZM150.708 41.8765L150.667 42.0728H150.759L150.79 41.8765H150.708ZM173.5 3.09962C173.572 3.09962 173.664 3.19777 173.777 3.39408C173.633 3.62353 173.521 3.74344 173.429 3.77627H173.142V3.39408L173.193 3.17599C173.224 3.17599 173.326 3.15422 173.5 3.09962ZM171.219 4.6057C171.556 4.6057 171.679 4.78022 171.607 5.1296L171.536 5.42407L171.403 5.80629H170.83C170.615 5.53329 170.513 5.32594 170.533 5.20601C170.645 4.80203 170.881 4.6057 171.219 4.6057ZM173.654 4.74742H173.725C173.879 4.74742 173.797 5.63143 173.48 7.38875C173.715 7.38875 173.807 7.50868 173.756 7.75959L173.746 7.83597C173.715 7.94517 173.592 8.02157 173.357 8.06544L173.306 8.28353C173.214 8.76389 173.265 9.09118 173.459 9.26571L173.439 9.3424C173.163 10.0408 173.009 10.4117 172.999 10.4663C172.948 11.9399 172.825 13.1622 172.631 14.1552L172.579 14.3736C172.385 15.3668 171.935 16.4471 171.239 17.6149C171.014 18.2262 170.717 19.2519 170.339 20.6927C170.349 21.7948 170.328 22.5043 170.267 22.7991L170.236 22.9519C170.165 23.3227 169.807 23.8466 169.141 24.5233L168.988 24.9819L168.865 27.0119L168.609 28.2885C168.569 28.5287 168.497 28.7796 168.384 29.0416L168.292 30.2422C167.965 30.9517 167.535 32.305 166.993 34.3022C167.852 34.6841 168.231 35.1098 168.139 35.5791L168.036 36.1138C168.599 36.1138 168.845 36.2886 168.773 36.6377V36.7141C168.579 36.7359 168.466 36.8122 168.435 36.9325C168.415 37.0852 168.712 37.1616 169.315 37.1616H169.95L170.287 37.238L170.216 37.5328C169.479 37.6309 168.753 37.8601 168.047 38.2094C166.256 38.5257 165.305 38.733 165.182 38.8205C165.09 38.8205 165.018 38.9404 164.967 39.1916L164.772 40.1738C164.865 40.8615 164.885 41.3526 164.824 41.6689C164.772 41.8873 164.251 43.317 163.258 45.958C162.45 46.7221 161.928 47.6715 161.703 48.8175C161.437 49.6144 161.191 50.018 160.966 50.018C160.823 50.018 160.813 49.6907 160.946 49.0469H160.803C160.506 49.3631 160.117 50.2911 159.626 51.8297C158.849 53.0848 158.275 54.1873 157.897 55.1366H157.682L157.723 54.9839C157.907 54.0124 158.439 52.5174 159.329 50.4766C159.288 50.1708 159.329 49.7236 159.452 49.1233C159.687 48.4138 159.821 47.9445 159.872 47.6936C159.902 47.5297 159.831 47.0715 159.657 46.3402C160.035 45.358 160.271 44.6268 160.363 44.1574C160.475 43.6225 160.537 43.0768 160.557 42.4986L160.158 42.8041H160.087V42.4222C160.168 41.9965 160.557 40.6213 161.263 38.2858C161.018 38.2312 160.833 38.2094 160.721 38.2094C159.401 38.4168 158.654 38.515 158.46 38.515L158.48 38.4386C158.367 38.1438 158.122 37.991 157.723 37.991H157.651C156.679 38.1873 156.157 38.4386 156.096 38.7441C155.636 39.2787 155.257 39.9336 154.94 40.6977C153.804 41.3962 153.098 42.1274 152.802 42.8805C152.72 43.2952 152.402 43.6989 151.85 44.0811C151.758 44.0811 151.717 44.0265 151.748 43.9283L151.84 43.4808L151.973 43.0986H151.696C150.847 44.4958 149.855 45.7507 148.698 46.8641C148.248 47.5626 147.941 47.9334 147.767 47.988H147.696V47.6172C147.88 47.3877 148.228 46.8095 148.75 45.8817C149.752 44.8666 150.366 43.8191 150.581 42.7277C151.042 42.0728 151.287 41.6253 151.338 41.3744C151.287 40.8177 151.246 40.545 151.216 40.545C151.881 39.3772 152.228 38.6788 152.28 38.4386C152.126 38.4386 151.635 38.264 150.827 37.9147H150.755C149.446 38.1656 148.75 38.4604 148.678 38.8205L147.818 38.8861H146.407C146.325 38.8861 145.987 38.6895 145.404 38.2858H143.644V37.9147C143.859 37.9147 144.053 37.7619 144.217 37.4671L143.603 37.3908C143.552 37.3908 143.307 37.4125 142.877 37.4671C142.846 37.4671 142.662 37.4454 142.334 37.3908C141.813 37.4889 141.26 37.5328 140.677 37.5328H139.48L139.51 37.3908C139.572 37.096 140.892 36.8233 143.48 36.5613C144.862 36.1466 145.609 35.8193 145.721 35.5791C145.752 35.4153 146.488 35.2736 147.921 35.1316L148.187 34.9025L148.095 34.6841L148.136 34.4549C150.919 34.204 152.842 34.0074 153.896 33.8547C154.305 33.6473 154.766 32.9706 155.288 31.8246C156.014 30.7661 156.403 30.144 156.434 29.9477C156.485 29.7403 156.495 29.4127 156.485 28.9652C157.273 27.5465 158.675 25.2874 160.67 22.1988C160.905 21.8822 161.263 21.031 161.744 19.6449C162.041 19.4375 162.388 18.859 162.777 17.9097C163.248 17.5057 163.78 16.5128 164.363 14.9082C164.722 14.5045 165.305 14.0459 166.113 13.5441C166.195 13.2711 166.563 12.9984 167.208 12.7254C167.31 12.1908 167.781 11.4706 168.63 10.5427C169.489 8.68751 170.113 7.75959 170.513 7.75959C170.85 7.85807 171.045 7.91268 171.116 7.91268C171.474 7.79244 171.74 7.25778 171.925 6.32988L172.231 6.25351C172.323 6.46086 172.354 6.86485 172.334 7.45409C172.518 7.45409 172.876 6.60289 173.408 4.90017L173.654 4.74742ZM171.822 15.7269L171.751 16.0324H171.822C171.904 15.8579 171.955 15.7597 171.965 15.7269H171.822ZM164.282 24.5997C163.115 27.099 162.348 28.6707 161.99 29.3364C161.59 29.6636 160.915 30.6679 159.974 32.3486C159.657 32.7087 159.411 33.0363 159.217 33.3307H159.503C159.943 33.1126 160.895 32.9599 162.337 32.8725V32.5013L162.583 31.3007C162.777 30.3514 163.197 28.9434 163.842 27.0882L164.312 24.7524L164.414 24.5997H164.282ZM169.725 34.3786H170.359C170.379 34.7058 170.379 34.9353 170.359 35.0552L170.328 35.2844C169.991 35.3825 169.766 35.4371 169.653 35.4371H169.305L169.336 34.9025L169.356 34.8261C169.571 34.6295 169.694 34.4767 169.725 34.3786ZM148.381 34.6841L148.361 34.7605H148.504L148.524 34.6841H148.381ZM171.331 36.2558H171.751L171.73 36.6377L171.699 36.8561H171.28C171.188 36.8561 171.147 36.7797 171.167 36.6377L171.331 36.2558ZM143.9 37.991L143.869 38.1438H143.941L143.971 37.991H143.9ZM160.353 42.1275V42.2038H160.485V42.1275H160.353ZM152.024 43.5572L152.014 43.6989H152.085L152.096 43.5572H152.024ZM187.984 10.4881C190.716 11.3068 191.974 12.2343 191.76 13.2822L191.698 13.5877C191.688 13.6423 191.657 13.664 191.596 13.664C191.974 14.2643 192.026 15.2248 191.77 16.5345C191.678 16.5345 191.555 16.6437 191.381 16.8618L191.279 17.3857C191.248 17.5495 190.818 18.0189 190.01 18.8155C189.529 19.525 189.018 19.8851 188.475 19.8851C188.362 19.8851 187.974 19.7869 187.319 19.5796C187.309 19.6667 187.176 19.8958 186.94 20.2562H186.766L186.838 19.9614L187.002 19.5796L186.592 19.5139C186.234 19.5139 185.682 20.1142 184.935 21.3148H184.689L184.71 21.162C185.252 20.3762 185.61 19.5467 185.784 18.6627L185.887 17.7569C185.385 17.7676 184.28 18.6516 182.571 20.409C180.566 22.0132 179.481 23.2028 179.328 23.9669C178.868 24.8727 178.336 25.5276 177.712 25.9423C177.046 26.8153 176.617 27.3174 176.422 27.4591C175.941 27.4591 175.092 28.8235 173.885 31.5627C171.46 35.2736 170.14 37.7183 169.905 38.9079C169.547 39.5517 169.219 40.0974 168.912 40.5667V40.9379C168.902 40.9925 168.769 41.1453 168.493 41.4072C168.523 41.7673 168.544 41.9636 168.544 42.0072C168.401 42.171 168.309 42.3238 168.278 42.4658L168.257 42.5422C168.216 42.7931 168.257 43.0443 168.37 43.2952H168.124C168.114 43.3498 168.165 43.4808 168.278 43.6664C169.137 43.459 169.598 43.2078 169.669 42.9133C170.13 42.6403 170.631 42.0072 171.184 41.0143C172.35 40.1849 173.076 39.53 173.373 39.0607C174.089 38.4932 174.611 38.2094 174.938 38.2094L174.928 38.2858L174.714 38.515L174.693 38.5913H174.785C175.031 38.4932 175.501 38.0346 176.197 37.238C176.33 37.238 177.057 36.6049 178.376 35.339C178.663 35.1534 178.929 35.0006 179.185 34.8914L179.175 35.0334C179.001 35.3607 178.898 35.5899 178.868 35.7101C178.929 35.7101 179.011 35.7319 179.103 35.7865C179.441 35.7865 179.993 35.339 180.76 34.4332C182.326 33.178 183.462 31.9884 184.178 30.8642C184.577 30.7661 184.976 30.3842 185.375 29.7403L185.866 29.3582L185.907 29.5109V29.5873C185.406 29.9695 184.689 30.9517 183.758 32.5341C183.063 33.1016 182.06 34.1384 180.76 35.6338C180.464 35.6338 180.095 35.9939 179.645 36.7141C179.461 36.7141 179.308 36.9653 179.175 37.4671C178.346 38.3404 177.896 38.9732 177.814 39.3662H177.66C177.712 39.137 177.804 38.9297 177.936 38.7441H177.855C177.773 38.7551 177.415 39.3116 176.79 40.414C175.512 41.8655 173.997 43.4151 172.268 45.0415C172.258 45.1286 172.176 45.2488 172.033 45.4123H172.104C172.401 45.216 172.606 45.1179 172.739 45.1179L172.718 45.2596C170.815 46.6785 169.332 47.3877 168.278 47.3877H167.961C166.006 47.3877 164.779 46.3074 164.277 44.1357C164.124 43.2078 164.195 42.0511 164.472 40.6431L165.208 36.9325C165.382 36.4086 166.129 34.8697 167.449 32.3157C167.664 32.3157 168.472 30.9734 169.884 28.2885C170.59 27.0883 172.698 24.1414 176.228 19.4375C176.3 19.0774 176.719 18.5971 177.496 17.986C177.66 17.5603 178.284 16.8947 179.369 16.0106C179.441 15.956 179.615 15.7269 179.911 15.334L179.686 15.1812C179.492 15.1812 178.776 15.6941 177.517 16.7091C177.2 16.7091 176.627 17.0802 175.808 17.8333L175.542 17.986H175.45L175.501 17.6805C175.818 17.5931 176.248 17.2112 176.79 16.5345C177.865 15.5849 178.776 14.8536 179.522 14.3625C179.492 14.2754 179.481 14.1662 179.502 14.0352C179.84 13.9589 180.054 13.7622 180.126 13.4349H180.198L180.423 13.5877C180.587 12.7582 181.19 12.2015 182.223 11.9288L183.451 11.4595L183.492 11.3175C183.329 11.3175 183.257 11.2632 183.277 11.1647C183.339 11.012 183.564 10.9356 183.963 10.9356H185.938C187.135 10.6412 187.82 10.4881 187.984 10.4881ZM186.061 18.0624L186.05 18.2152H186.112L186.153 18.0624H186.061ZM187.35 21.0857H187.841C187.923 21.4458 187.964 21.6856 187.953 21.7841L187.912 21.9369C187.902 21.9915 187.81 22.0678 187.636 22.1549H187.206C187.125 22.1549 187.033 22.0568 186.94 21.8605L186.961 21.7841C186.992 21.6856 187.114 21.4458 187.35 21.0857ZM184.669 22.6135H184.915V22.9847L184.567 23.1374L184.444 22.908L184.475 22.7663C184.505 22.6681 184.577 22.6135 184.669 22.6135ZM172.739 24.6653C172.718 24.7524 172.636 24.8727 172.493 25.0365L172.473 25.1128H172.565C172.575 25.0254 172.657 24.8945 172.79 24.7307L172.81 24.6653H172.739ZM176.954 26.4662C176.944 26.5315 176.903 26.6079 176.832 26.7061H176.903L177.026 26.5643L177.036 26.4662H176.954ZM175.102 39.8137V39.8901C175.338 39.7919 175.471 39.6392 175.501 39.4318C175.43 39.4318 175.297 39.5628 175.102 39.8137ZM204.31 3.09962C204.381 3.09962 204.473 3.19777 204.586 3.39408C204.443 3.62353 204.33 3.74344 204.238 3.77627H203.952V3.39408L204.003 3.17599C204.033 3.17599 204.136 3.15422 204.31 3.09962ZM202.028 4.6057C202.366 4.6057 202.488 4.78022 202.417 5.1296L202.345 5.42407L202.212 5.80629H201.639C201.424 5.53329 201.322 5.32594 201.342 5.20601C201.455 4.80203 201.69 4.6057 202.028 4.6057ZM204.463 4.74742H204.535C204.688 4.74742 204.606 5.63143 204.289 7.38875C204.524 7.38875 204.617 7.50868 204.565 7.75959L204.555 7.83597C204.524 7.94517 204.402 8.02157 204.166 8.06544L204.115 8.28353C204.023 8.76389 204.074 9.09118 204.269 9.26571L204.248 9.3424C203.972 10.0408 203.818 10.4117 203.808 10.4663C203.757 11.9399 203.634 13.1622 203.44 14.1552L203.389 14.3736C203.194 15.3668 202.744 16.4471 202.048 17.6149C201.823 18.2262 201.526 19.2519 201.148 20.6927C201.158 21.7948 201.138 22.5043 201.076 22.7991L201.046 22.9519C200.974 23.3227 200.616 23.8466 199.951 24.5233L199.797 24.9819L199.674 27.0119L199.419 28.2885C199.378 28.5287 199.306 28.7796 199.194 29.0416L199.102 30.2422C198.774 30.9517 198.344 32.305 197.802 34.3022C198.662 34.6841 199.04 35.1098 198.948 35.5791L198.846 36.1138C199.409 36.1138 199.654 36.2886 199.582 36.6377V36.7141C199.388 36.7359 199.276 36.8122 199.245 36.9325C199.224 37.0852 199.521 37.1616 200.125 37.1616H200.759L201.097 37.238L201.025 37.5328C200.288 37.6309 199.562 37.8601 198.856 38.2094C197.066 38.5257 196.114 38.733 195.991 38.8205C195.899 38.8205 195.827 38.9404 195.776 39.1916L195.582 40.1738C195.674 40.8615 195.695 41.3526 195.633 41.6689C195.582 41.8873 195.06 43.317 194.068 45.958C193.259 46.7221 192.737 47.6715 192.512 48.8175C192.246 49.6144 192.001 50.018 191.776 50.018C191.633 50.018 191.622 49.6907 191.755 49.0469H191.612C191.315 49.3631 190.927 50.2911 190.435 51.8297C189.658 53.0848 189.085 54.1873 188.706 55.1366H188.491L188.532 54.9839C188.716 54.0124 189.248 52.5174 190.139 50.4766C190.098 50.1708 190.139 49.7236 190.261 49.1233C190.497 48.4138 190.63 47.9445 190.681 47.6936C190.712 47.5297 190.64 47.0715 190.466 46.3402C190.845 45.358 191.08 44.6268 191.172 44.1574C191.285 43.6225 191.346 43.0768 191.366 42.4986L190.967 42.8041H190.896V42.4222C190.978 41.9965 191.366 40.6213 192.072 38.2858C191.827 38.2312 191.643 38.2094 191.53 38.2094C190.21 38.4168 189.463 38.515 189.269 38.515L189.29 38.4386C189.177 38.1438 188.931 37.991 188.532 37.991H188.461C187.489 38.1873 186.967 38.4386 186.906 38.7441C186.445 39.2787 186.066 39.9336 185.749 40.6977C184.614 41.3962 183.908 42.1274 183.611 42.8805C183.529 43.2952 183.212 43.6989 182.659 44.0811C182.567 44.0811 182.526 44.0265 182.557 43.9283L182.649 43.4808L182.782 43.0986H182.506C181.657 44.4958 180.664 45.7507 179.508 46.8641C179.058 47.5626 178.751 47.9334 178.577 47.988H178.505V47.6172C178.689 47.3877 179.037 46.8095 179.559 45.8817C180.562 44.8666 181.176 43.8191 181.391 42.7277C181.851 42.0728 182.097 41.6253 182.148 41.3744C182.097 40.8177 182.056 40.545 182.025 40.545C182.69 39.3772 183.038 38.6788 183.089 38.4386C182.936 38.4386 182.444 38.264 181.636 37.9147H181.565C180.255 38.1656 179.559 38.4604 179.487 38.8205L178.628 38.8861H177.216C177.134 38.8861 176.797 38.6895 176.213 38.2858H174.454V37.9147C174.668 37.9147 174.863 37.7619 175.026 37.4671L174.412 37.3908C174.361 37.3908 174.116 37.4125 173.686 37.4671C173.655 37.4671 173.471 37.4454 173.144 37.3908C172.622 37.4889 172.07 37.5328 171.486 37.5328H170.289L170.32 37.3908C170.381 37.096 171.701 36.8233 174.29 36.5613C175.671 36.1466 176.418 35.8193 176.53 35.5791C176.561 35.4153 177.298 35.2736 178.73 35.1316L178.996 34.9025L178.904 34.6841L178.945 34.4549C181.728 34.204 183.652 34.0074 184.706 33.8547C185.115 33.6473 185.575 32.9706 186.097 31.8246C186.824 30.7661 187.212 30.144 187.243 29.9477C187.294 29.7403 187.304 29.4127 187.294 28.9652C188.082 27.5465 189.484 25.2874 191.479 22.1988C191.714 21.8822 192.072 21.031 192.553 19.6449C192.85 19.4375 193.198 18.859 193.587 17.9097C194.057 17.5057 194.589 16.5128 195.173 14.9082C195.531 14.5045 196.114 14.0459 196.922 13.5441C197.004 13.2711 197.372 12.9984 198.017 12.7254C198.119 12.1908 198.59 11.4706 199.439 10.5427C200.299 8.68751 200.923 7.75959 201.322 7.75959C201.66 7.85807 201.854 7.91268 201.926 7.91268C202.284 7.79244 202.55 7.25778 202.734 6.32988L203.041 6.25351C203.133 6.46086 203.164 6.86485 203.143 7.45409C203.327 7.45409 203.686 6.60289 204.218 4.90017L204.463 4.74742ZM202.632 15.7269L202.56 16.0324H202.632C202.714 15.8579 202.765 15.7597 202.775 15.7269H202.632ZM195.091 24.5997C193.924 27.099 193.157 28.6707 192.799 29.3364C192.4 29.6636 191.725 30.6679 190.783 32.3486C190.466 32.7087 190.22 33.0363 190.026 33.3307H190.313C190.753 33.1126 191.704 32.9599 193.147 32.8725V32.5013L193.392 31.3007C193.587 30.3514 194.006 28.9434 194.651 27.0882L195.121 24.7524L195.224 24.5997H195.091ZM200.534 34.3786H201.168C201.189 34.7058 201.189 34.9353 201.168 35.0552L201.138 35.2844C200.8 35.3825 200.575 35.4371 200.462 35.4371H200.114L200.145 34.9025L200.166 34.8261C200.38 34.6295 200.503 34.4767 200.534 34.3786ZM179.191 34.6841L179.17 34.7605H179.313L179.334 34.6841H179.191ZM202.14 36.2558H202.56L202.54 36.6377L202.509 36.8561H202.089C201.997 36.8561 201.956 36.7797 201.977 36.6377L202.14 36.2558ZM174.709 37.991L174.678 38.1438H174.75L174.781 37.991H174.709ZM191.162 42.1275V42.2038H191.295V42.1275H191.162ZM182.833 43.5572L182.823 43.6989H182.895L182.905 43.5572H182.833ZM200.151 48.7193L200.213 48.5555C200.11 48.5555 200.028 48.6101 199.967 48.7193H200.151ZM225.7 14.3189L225.772 14.1552H225.69L225.618 14.3189H225.7ZM211.764 25.6911H211.846L211.908 25.6039C211.846 25.6039 211.764 25.5711 211.672 25.5055H211.59L211.549 25.6039C211.611 25.6039 211.682 25.6364 211.764 25.6911ZM194.012 44.943L194.053 44.8666H193.869L193.838 44.943H194.012ZM201.553 29.5655H201.307C200.867 29.5655 200.12 29.7403 199.067 30.0787H198.616C198.504 30.0787 198.473 30.0241 198.524 29.9038L198.616 29.7182C200.775 28.9873 201.942 28.4741 202.105 28.1576H201.041C200.949 28.1576 200.929 28.0922 200.96 27.9723L201.041 27.7974C201.972 27.3827 202.484 27.1754 202.576 27.1754L202.719 26.8263C202.832 25.8331 202.975 25.0365 203.159 24.4362L203.262 24.2067C203.599 23.934 203.783 23.7702 203.814 23.7156C204.111 22.2534 204.326 21.3801 204.469 21.0857C204.899 19.132 205.226 17.9425 205.451 17.4949L205.553 17.2765H205.697L205.861 17.4186H205.932C206.352 16.567 206.403 15.956 206.086 15.5959C206.249 14.8429 206.301 14.4171 206.229 14.3189H205.993C205.697 14.3189 205.114 14.4499 204.254 14.7119H203.814L203.937 14.4717C204.377 14.1334 205.175 13.7622 206.331 13.3585C206.423 13.173 206.29 13.042 205.932 12.9656C206.106 12.6273 206.433 12.3653 206.914 12.158C206.904 11.9071 207.058 11.4595 207.395 10.8046C207.467 10.6411 207.539 10.1936 207.62 9.45129L207.743 9.21141C207.989 9.21141 208.111 9.34239 208.111 9.61507H208.183C208.183 9.34239 208.214 9.13473 208.285 8.98197C208.337 8.86204 208.408 8.80743 208.5 8.80743H208.644C208.644 8.93841 208.664 9.23318 208.715 9.69145C209.032 9.69145 209.442 9.52765 209.943 9.21141C209.912 8.9384 209.943 8.73107 210.035 8.56727C210.27 8.14183 210.536 7.92341 210.843 7.92341C210.976 7.92341 211.058 7.96696 211.109 8.04334C211.304 7.46514 211.468 7.03937 211.6 6.76668L211.774 6.42836L212.061 5.99156C212.317 5.99156 212.276 6.42835 211.938 7.31238C211.877 7.71604 211.826 8.08721 211.774 8.43628C211.979 8.37095 212.143 8.33811 212.276 8.33811H212.409C213.012 8.33811 213.36 8.52369 213.452 8.8838L214.015 8.80743H214.087C214.455 8.97123 214.875 9.08044 215.335 9.13472C215.396 9.56048 216.287 9.76785 218.016 9.76785C219.151 9.76785 219.683 10.0298 219.602 10.5644C220.123 10.5644 221.607 10.6411 224.063 10.8046L223.94 11.0448L223.643 11.2957L223.602 11.3721C224.247 11.5794 224.626 11.6886 224.718 11.6886H225.454L225.628 12.3325H226.447C226.539 12.3325 226.559 12.3764 226.518 12.4745H226.672C228.38 12.1144 229.598 11.9288 230.325 11.9288C230.406 11.9834 230.468 12.0052 230.519 12.0052L230.458 12.0816C230.376 12.2561 230.079 12.3653 229.568 12.3982C227.04 13.0856 225.7 13.5659 225.556 13.8279C225.894 13.926 226.038 14.0352 225.986 14.1552L225.945 14.2426C225.751 14.461 225.516 14.5699 225.26 14.5699H224.748C224.165 14.5699 223.817 14.6683 223.725 14.8646C223.265 15.2904 222.303 15.5085 220.84 15.5085L220.502 15.4321C220.737 14.9521 220.318 14.7119 219.233 14.7119H219.09C218.026 15.1373 217.402 15.3557 217.228 15.3557H216.348C215.335 15.3557 214.455 15.0938 213.718 14.5699C213.258 14.6137 212.972 14.7665 212.838 15.0392H212.163L212.061 14.9628L211.57 16.5563C211.498 16.7091 211.375 16.9164 211.212 17.1784C211.14 17.4732 211.079 17.7787 211.007 18.117L210.946 18.2152C210.925 18.248 210.782 18.4225 210.506 18.7391C210.045 20.4961 209.708 21.5985 209.493 22.0461C209.452 22.0786 209.411 22.1114 209.38 22.1442C209.779 23.0718 209.738 24.0104 209.257 24.9819C211.171 24.9819 212.317 25.2438 212.675 25.7674C213.534 26.9352 214.292 27.5794 214.936 27.7211C215.13 28.2014 215.744 28.8453 216.767 29.6419C216.839 30.3731 217.299 31.6612 218.159 33.5163C218.64 35.4917 218.548 37.38 217.862 39.1588C217.054 40.7959 215.744 42.3783 213.944 43.8955C213.473 43.8955 212.931 44.1028 212.327 44.5176C210.23 45.9255 208.48 46.8313 207.058 47.235C203.139 48.4138 200.694 49.003 199.722 49.003L199.159 48.9159L199.21 48.8175C199.292 48.6429 199.456 48.5555 199.691 48.5555L199.773 48.381C199.742 48.381 199.456 48.3264 198.913 48.2172C197.726 48.2718 196.928 48.2939 196.519 48.2939L196.038 48.381C196.069 48.3264 195.792 48.2939 195.209 48.2939C194.667 47.5844 193.951 47.235 193.04 47.235C192.437 47.235 190.595 46.2092 187.515 44.1574L187.617 43.9826C187.669 43.8627 187.75 43.7974 187.863 43.7974H187.955C188.211 43.7974 188.456 43.9501 188.712 44.2446C189.735 44.2446 190.513 44.5939 191.035 45.3034C192.191 45.4234 192.948 45.5761 193.327 45.7507L193.859 45.6418L193.889 45.5654L193.347 44.8666L193.521 44.7031C194.186 44.7031 195.168 44.7578 196.468 44.8666C197.256 44.605 197.808 44.3648 198.136 44.1574C199.384 44.1028 200.786 43.9608 202.351 43.721L202.382 43.6443C202.218 43.5679 201.686 43.5354 200.796 43.5354C199.773 42.7823 199.23 42.4112 199.179 42.4112C198.852 42.4112 198.801 41.8219 199.016 40.6431C199.64 39.2898 199.834 38.6131 199.599 38.6131C199.742 38.3183 199.967 37.3907 200.284 35.8083L200.468 35.4482C200.499 35.3936 200.54 35.3172 200.591 35.2408C201.093 34.1494 201.246 33.6037 201.031 33.6037C201.359 32.9271 201.502 32.294 201.471 31.6937L201.839 31.0498C202.065 30.0566 201.972 29.5655 201.553 29.5655ZM208.204 8.09795C208.132 8.09795 208.111 7.98905 208.153 7.78169C208.285 7.56329 208.408 7.45409 208.521 7.45409H208.674C208.746 7.48692 208.777 7.61789 208.766 7.85807C208.572 8.02156 208.459 8.09795 208.429 8.09795H208.204ZM204.479 11.765C204.571 11.5577 204.797 11.3942 205.134 11.2957C205.247 11.2957 205.451 11.4049 205.738 11.6123L205.625 11.8414C205.41 12.2672 205.073 12.4745 204.623 12.4745C204.285 12.4745 204.234 12.2343 204.479 11.765ZM199.087 27.0119L199.138 26.9134C199.343 26.5098 199.619 26.3131 199.967 26.3131C199.947 26.3459 200.172 26.4662 200.642 26.6735L200.571 26.8263C200.346 27.2846 199.926 27.5465 199.322 27.6119H199.23C198.995 27.4919 198.954 27.2956 199.087 27.0119ZM196.662 30.002L197.03 29.3799H197.204L197.624 29.4673L197.542 29.6419L197.225 30.0787H196.795L196.662 30.002ZM198.627 43.1753L199.016 42.7495H199.261C199.353 42.8695 199.445 42.9351 199.527 42.9351L199.476 43.0222L199.2 43.459H198.576C198.606 43.3934 198.627 43.2952 198.627 43.1753ZM206.822 37.7401C207.303 37.7401 207.221 38.8533 206.567 41.0689C206.495 41.0689 206.433 41.1014 206.403 41.167L205.421 43.1753L205.206 43.7974C206.965 43.5026 208.03 42.9679 208.408 42.2146C210.301 41.2216 211.508 40.2066 212.03 39.1588C212.757 37.7073 212.777 36.6705 212.092 36.0702C211.109 36.0702 210.577 35.3936 210.496 34.0402C209.974 33.6583 209.114 33.1562 207.917 32.5559C207.651 33.2982 207.457 33.8001 207.324 34.062C207.273 34.7715 207.109 35.4264 206.812 36.0156L206.741 36.1466C206.659 36.7687 206.689 37.3033 206.822 37.7401ZM206.245 63.2349H206.092C206 63.2349 205.958 63.1585 205.979 62.9947C207.34 60.288 208.66 57.9632 209.928 56.0317C210.123 55.1038 210.849 53.4014 212.118 50.9021C212.497 49.0248 213.029 47.6172 213.735 46.6893C215.095 44.5176 216.109 42.7278 216.753 41.3198H216.589C216.569 41.429 216.283 41.7017 215.73 42.1382C215.034 43.4044 214.512 44.0372 214.175 44.0372L214.195 43.9719C214.267 43.6118 214.748 42.6403 215.638 41.0689C215.689 40.7959 215.996 40.152 216.559 39.1588C216.61 38.9079 216.845 38.4932 217.265 37.9147L217.295 37.7619C217.326 37.6199 217.295 37.369 217.203 37.0089C217.889 36.1466 218.4 35.2626 218.738 34.3568L218.349 34.4549H218.267C218.349 34.073 218.932 33.2436 220.007 31.9774C220.058 31.7375 220.651 30.9081 221.808 29.4891C221.951 29.3035 222.043 29.129 222.074 28.9873L222.094 28.9106C222.063 28.518 222.053 28.2996 222.053 28.256C222.114 27.983 222.81 26.979 224.13 25.2656C224.192 24.9708 224.764 24.065 225.839 22.5372C226.013 21.6093 226.33 20.9436 226.78 20.54C226.872 20.0924 227.108 19.6777 227.486 19.3066C227.967 17.5931 228.448 16.7419 228.929 16.7419C230.003 16.0652 230.617 15.3229 230.781 14.5045C231.221 13.5113 231.917 12.7472 232.858 12.1908C233.339 11.765 233.809 11.5252 234.249 11.4485C234.382 11.4485 234.648 11.5031 235.058 11.6123C235.15 11.1758 235.354 10.9574 235.661 10.9574H235.978C236.204 11.0994 236.285 11.3175 236.224 11.6123L236.009 11.9506C236.705 12.431 237.032 12.8457 237.002 13.1947H237.247C237.585 12.3653 237.974 11.9506 238.414 11.9506L238.393 12.027C237.83 13.315 237.524 14.057 237.493 14.2644C237.575 14.9956 237.83 16.1523 238.27 17.7458C238.332 17.9532 238.342 18.1498 238.301 18.3244H238.465C238.547 17.9425 238.69 17.7458 238.884 17.7458C238.997 17.7458 239.058 17.8879 239.048 18.1606C238.792 19.1756 238.639 19.7976 238.588 20.0485C238.475 20.5835 238.557 21.4893 238.813 22.777C238.762 23.039 238.874 24.807 239.15 28.0812L239.079 31.5627C238.802 32.4906 238.618 33.0035 238.536 33.1234L238.342 35.2844L238.199 36.0156C238.086 36.5724 237.922 37.238 237.718 38.0128C237.769 39.3116 237.667 40.5775 237.421 41.7999L237.401 41.8983C237.104 43.0986 236.858 43.6989 236.664 43.6989C236.347 43.6007 236.132 43.5572 235.999 43.5572H235.835L235.61 44.3755C235.579 44.4519 235.538 44.8995 235.487 45.6964L235.313 46.6022L235.15 47.0169H234.832C234.966 45.6964 234.914 45.0415 234.689 45.0415H234.464C234.474 45.7507 234.454 46.2528 234.392 46.5258C233.748 48.4684 233.4 49.5487 233.369 49.7561H233.052C232.899 49.2432 232.899 47.9555 233.052 45.8709C232.796 45.3688 232.674 44.7032 232.684 43.8737C232.244 43.721 232.09 43.3388 232.203 42.7277C232.111 41.7235 232.009 41.2216 231.886 41.2216L231.538 41.3962C231.262 41.3962 231.354 39.661 231.804 36.1795C231.354 35.3062 231.211 34.455 231.374 33.6255L231.558 33.1234L231.64 32.7086C231.968 30.2968 232.009 28.9545 231.753 28.6597C231.62 28.2885 231.63 27.7103 231.783 26.9134C231.804 26.7935 231.896 26.488 232.049 26.0187C231.875 25.342 231.825 24.7853 231.906 24.3598C231.957 24.1304 232.346 23.6068 233.073 22.777L233.247 22.2859H233.103C233.032 22.6464 232.684 22.9736 232.049 23.2902C231.998 23.5193 231.18 25.0365 229.594 27.8413C228.939 29.14 228.161 30.1876 227.251 30.9734C226.524 31.5302 225.235 33.5602 223.394 37.0852C222.902 37.8272 222.401 39.0389 221.9 40.7305C220.846 42.3566 219.618 44.1575 218.196 46.1111C218.063 46.7332 217.336 47.7807 216.006 49.2543C215.433 49.6033 214.829 50.3235 214.195 51.4149C212.937 53.9581 212.098 55.475 211.658 55.966H211.586L211.688 55.3768C211.903 54.8422 212.016 54.5363 212.026 54.46L212.077 54.209C212.087 54.0998 212.046 54.0452 211.954 54.0452H211.883C210.829 56.3044 209.928 57.8215 209.192 58.5963C208.25 60.2445 207.268 61.7941 206.245 63.2349ZM233.85 50.4874H233.687C233.605 50.4874 233.543 50.411 233.492 50.2472L233.543 50.0073C233.574 49.8871 233.635 49.8325 233.738 49.8325H234.126C234.106 49.9527 234.106 50.0726 234.126 50.1708C234.014 50.3781 233.922 50.4874 233.85 50.4874ZM235.958 48.7628C235.651 48.7628 235.559 48.4573 235.682 47.8353C235.815 47.5626 236.03 47.4316 236.316 47.4316H236.47C236.552 47.4316 236.664 47.6279 236.807 48.0098L236.756 48.3481C236.725 48.4684 236.459 48.6101 235.958 48.7628ZM216.835 40.8069L216.876 40.6542C216.763 40.6542 216.702 40.7085 216.692 40.8069H216.835ZM238.71 16.6655H238.322L238.342 16.2616L238.69 15.9888H238.925C238.915 16.076 238.936 16.1851 239.007 16.3272C238.894 16.5563 238.792 16.6655 238.71 16.6655ZM237.155 11.6123H236.705V11.1976L236.715 11.1212C236.746 11.012 236.807 10.9574 236.91 10.9574H237.216C237.319 10.9574 237.35 11.0338 237.319 11.1976L237.155 11.6123ZM238.516 10.7065H238.127V10.2918C238.137 10.2043 238.24 10.1279 238.414 10.0516H238.802C238.772 10.1718 238.782 10.2807 238.813 10.3681C238.68 10.5973 238.588 10.7065 238.516 10.7065ZM257.737 3.09962C257.809 3.09962 257.901 3.19777 258.013 3.39408C257.87 3.62353 257.757 3.74344 257.665 3.77627H257.379V3.39408L257.43 3.17599C257.461 3.17599 257.563 3.15422 257.737 3.09962ZM255.455 4.6057C255.793 4.6057 255.916 4.78022 255.844 5.1296L255.773 5.42407L255.639 5.80629H255.067C254.852 5.53329 254.749 5.32594 254.77 5.20601C254.882 4.80203 255.118 4.6057 255.455 4.6057ZM257.891 4.74742H257.962C258.116 4.74742 258.034 5.63143 257.717 7.38875C257.952 7.38875 258.044 7.50868 257.993 7.75959L257.983 7.83597C257.952 7.94517 257.829 8.02157 257.594 8.06544L257.543 8.28353C257.451 8.76389 257.502 9.09118 257.696 9.26571L257.676 9.3424C257.399 10.0408 257.246 10.4117 257.236 10.4663C257.185 11.9399 257.062 13.1622 256.867 14.1552L256.816 14.3736C256.622 15.3668 256.171 16.4471 255.476 17.6149C255.251 18.2262 254.954 19.2519 254.575 20.6927C254.586 21.7948 254.565 22.5043 254.504 22.7991L254.473 22.9519C254.401 23.3227 254.043 23.8466 253.378 24.5233L253.225 24.9819L253.102 27.0119L252.846 28.2885C252.805 28.5287 252.734 28.7796 252.621 29.0416L252.529 30.2422C252.202 30.9517 251.772 32.305 251.23 34.3022C252.089 34.6841 252.468 35.1098 252.376 35.5791L252.273 36.1138C252.836 36.1138 253.081 36.2886 253.01 36.6377V36.7141C252.815 36.7359 252.703 36.8122 252.672 36.9325C252.652 37.0852 252.949 37.1616 253.552 37.1616H254.187L254.524 37.238L254.453 37.5328C253.716 37.6309 252.989 37.8601 252.283 38.2094C250.493 38.5257 249.542 38.733 249.419 38.8205C249.326 38.8205 249.255 38.9404 249.204 39.1916L249.009 40.1738C249.102 40.8615 249.122 41.3526 249.06 41.6689C249.009 41.8873 248.488 43.317 247.495 45.958C246.687 46.7221 246.165 47.6715 245.94 48.8175C245.674 49.6144 245.428 50.018 245.203 50.018C245.06 50.018 245.05 49.6907 245.183 49.0469H245.039C244.743 49.3631 244.354 50.2911 243.863 51.8297C243.085 53.0848 242.512 54.1873 242.134 55.1366H241.919L241.96 54.9839C242.144 54.0124 242.676 52.5174 243.566 50.4766C243.525 50.1708 243.566 49.7236 243.689 49.1233C243.924 48.4138 244.057 47.9445 244.108 47.6936C244.139 47.5297 244.067 47.0715 243.893 46.3402C244.272 45.358 244.507 44.6268 244.599 44.1574C244.712 43.6225 244.773 43.0768 244.794 42.4986L244.395 42.8041H244.323V42.4222C244.405 41.9965 244.794 40.6213 245.5 38.2858C245.254 38.2312 245.07 38.2094 244.958 38.2094C243.638 38.4168 242.891 38.515 242.697 38.515L242.717 38.4386C242.604 38.1438 242.359 37.991 241.96 37.991H241.888C240.916 38.1873 240.394 38.4386 240.333 38.7441C239.872 39.2787 239.494 39.9336 239.177 40.6977C238.041 41.3962 237.335 42.1274 237.038 42.8805C236.956 43.2952 236.639 43.6989 236.087 44.0811C235.995 44.0811 235.954 44.0265 235.984 43.9283L236.076 43.4808L236.21 43.0986H235.933C235.084 44.4958 234.092 45.7507 232.935 46.8641C232.485 47.5626 232.178 47.9334 232.004 47.988H231.932V47.6172C232.117 47.3877 232.465 46.8095 232.986 45.8817C233.989 44.8666 234.603 43.8191 234.818 42.7277C235.278 42.0728 235.524 41.6253 235.575 41.3744C235.524 40.8177 235.483 40.545 235.452 40.545C236.117 39.3772 236.465 38.6788 236.516 38.4386C236.363 38.4386 235.872 38.264 235.064 37.9147H234.992C233.682 38.1656 232.986 38.4604 232.915 38.8205L232.055 38.8861H230.643C230.562 38.8861 230.224 38.6895 229.641 38.2858H227.881V37.9147C228.096 37.9147 228.29 37.7619 228.454 37.4671L227.84 37.3908C227.789 37.3908 227.543 37.4125 227.113 37.4671C227.083 37.4671 226.899 37.4454 226.571 37.3908C226.049 37.4889 225.497 37.5328 224.914 37.5328H223.717L223.747 37.3908C223.809 37.096 225.129 36.8233 227.717 36.5613C229.099 36.1466 229.845 35.8193 229.958 35.5791C229.989 35.4153 230.725 35.2736 232.158 35.1316L232.424 34.9025L232.332 34.6841L232.372 34.4549C235.156 34.204 237.079 34.0074 238.133 33.8547C238.542 33.6473 239.003 32.9706 239.525 31.8246C240.251 30.7661 240.64 30.144 240.671 29.9477C240.722 29.7403 240.732 29.4127 240.722 28.9652C241.509 27.5465 242.911 25.2874 244.906 22.1988C245.142 21.8822 245.5 21.031 245.981 19.6449C246.278 19.4375 246.625 18.859 247.014 17.9097C247.485 17.5057 248.017 16.5128 248.6 14.9082C248.958 14.5045 249.542 14.0459 250.35 13.5441C250.432 13.2711 250.8 12.9984 251.444 12.7254C251.547 12.1908 252.018 11.4706 252.867 10.5427C253.726 8.68751 254.35 7.75959 254.749 7.75959C255.087 7.85807 255.281 7.91268 255.353 7.91268C255.711 7.79244 255.977 7.25778 256.161 6.32988L256.468 6.25351C256.56 6.46086 256.591 6.86485 256.571 7.45409C256.755 7.45409 257.113 6.60289 257.645 4.90017L257.891 4.74742ZM256.059 15.7269L255.987 16.0324H256.059C256.141 15.8579 256.192 15.7597 256.202 15.7269H256.059ZM248.518 24.5997C247.352 27.099 246.584 28.6707 246.226 29.3364C245.827 29.6636 245.152 30.6679 244.211 32.3486C243.893 32.7087 243.648 33.0363 243.453 33.3307H243.74C244.18 33.1126 245.132 32.9599 246.574 32.8725V32.5013L246.82 31.3007C247.014 30.3514 247.434 28.9434 248.078 27.0882L248.549 24.7524L248.651 24.5997H248.518ZM253.961 34.3786H254.596C254.616 34.7058 254.616 34.9353 254.596 35.0552L254.565 35.2844C254.227 35.3825 254.002 35.4371 253.89 35.4371H253.542L253.573 34.9025L253.593 34.8261C253.808 34.6295 253.931 34.4767 253.961 34.3786ZM232.618 34.6841L232.598 34.7605H232.741L232.761 34.6841H232.618ZM255.568 36.2558H255.987L255.967 36.6377L255.936 36.8561H255.517C255.425 36.8561 255.384 36.7797 255.404 36.6377L255.568 36.2558ZM228.137 37.991L228.106 38.1438H228.178L228.208 37.991H228.137ZM244.589 42.1275V42.2038H244.722V42.1275H244.589ZM236.261 43.5572L236.25 43.6989H236.322L236.332 43.5572H236.261ZM282.131 4.26738H282.356C282.437 4.26738 282.519 4.37659 282.601 4.58394L282.55 4.84589C282.478 4.84589 282.366 4.90017 282.212 4.99864H281.987C282.018 4.78024 281.987 4.67104 281.895 4.67104C282.038 4.48547 282.12 4.35449 282.131 4.26738ZM279.256 5.41335H279.501C279.9 5.41335 280.115 5.52257 280.136 5.7517L280.084 5.99156C279.972 6.49369 279.716 6.74462 279.307 6.74462H279.153C278.979 6.34095 278.908 6.06825 278.938 5.91518C279.133 5.65322 279.245 5.48972 279.256 5.41335ZM282.212 6.16641C282.325 6.17714 282.366 6.23173 282.335 6.32988L282.264 6.64645C281.772 7.59612 281.373 8.84026 281.066 10.3681L280.79 11.7868C280.954 11.9617 281.026 12.1252 280.995 12.289C280.985 12.3218 280.821 12.6491 280.483 13.2711L280.401 13.6858C280.268 14.3625 279.88 15.6941 279.214 17.6695C279.122 18.4336 279.02 19.0881 278.897 19.6449C278.795 20.2016 277.639 22.1332 275.429 25.4291L275.286 26.084L275.275 26.5969C274.774 28.0922 274.344 28.8342 273.986 28.8342C273.577 29.0308 273.331 29.3364 273.239 29.7403H273.72C273.915 29.7403 273.976 29.9584 273.894 30.3949H274.354C274.385 30.755 274.395 31.0063 274.375 31.148L274.324 31.3881C273.966 31.5081 273.73 31.5627 273.597 31.5627H273.209C273.219 31.4756 273.188 31.3664 273.106 31.2244L273.157 30.9734L273.28 30.8096H273.035C272.902 30.8096 272.677 31.3336 272.349 32.3814C272.707 32.3814 273.024 32.6323 273.28 33.1234C273.249 33.2326 272.983 33.2872 272.472 33.2872L272.451 33.3853C272.871 33.3853 273.454 33.4399 274.201 33.5381L274.14 33.8C274.109 33.9749 273.209 34.2147 271.449 34.5313C270.947 35.2626 270.293 36.4739 269.474 38.1766C268.297 39.1481 267.663 39.8901 267.55 40.414C267.192 41.429 266.977 42.0072 266.895 42.1382C266.977 42.5311 267.008 42.9241 266.988 43.3059L265.524 45.9362C265.371 46.6893 264.941 47.1914 264.225 47.4423C263.99 47.6061 263.529 48.4356 262.864 49.9309C262.506 50.3674 262.281 50.5855 262.189 50.5855C262.036 50.5855 262.036 50.2254 262.179 49.5162C261.81 49.5487 261.565 49.8542 261.452 50.411L258.935 54.5474C258.659 55.4314 258.342 55.8679 257.963 55.8679L257.912 55.7151L257.933 55.6277C258.495 54.1327 259.293 52.3428 260.327 50.2472C260.337 49.9527 260.368 49.7015 260.398 49.5162C260.757 48.6975 260.951 48.25 260.982 48.1736L260.992 48.0098C261.022 47.8571 261.002 47.4752 260.92 46.8641L260.941 46.7657C261.79 44.5722 262.23 43.3716 262.281 43.1425H262.209L261.943 43.3059H261.79C261.677 43.3059 261.636 43.2517 261.667 43.1425C262.158 41.9637 263.253 39.7045 264.962 36.354C265.146 36.1902 265.289 35.8411 265.402 35.2844L265.432 35.1098C265.473 34.6733 265.31 34.4549 264.941 34.4549C264.44 34.7279 263.938 34.8697 263.458 34.8697H263.161C263.079 34.4332 262.895 34.2148 262.598 34.2148L261.033 34.6187H260.726C260.603 34.6187 260.194 34.4878 259.498 34.2148C259.385 34.728 259.007 35.4589 258.352 36.4303C257.237 38.8097 256.429 39.9993 255.937 39.9993C255.538 40.2937 255.119 41.025 254.699 42.2146C254.597 42.5311 254.515 42.837 254.454 43.1425C254.505 43.6771 254.505 44.0372 254.474 44.2121C253.605 45.7289 253.144 46.6347 253.083 46.9405C252.714 47.8245 252.315 48.2718 251.886 48.2718C251.65 48.4791 251.251 49.2978 250.688 50.7493C250.3 51.1312 250.085 51.3168 250.034 51.3168H249.942L249.993 50.7493L250.064 50.3456H249.768C249.614 51.0548 248.652 52.4082 246.862 54.3836C246.452 55.213 246.084 55.6277 245.767 55.6277V55.5513C245.91 54.8747 246.678 53.6305 248.079 51.8297C248.172 51.557 248.489 50.4545 249.041 48.512C248.857 48.1408 248.785 47.8681 248.816 47.6936C249.256 46.7657 249.542 45.958 249.676 45.2813C249.87 44.5939 249.972 44.2338 249.982 44.2121H249.89C249.737 44.3209 249.655 44.3755 249.624 44.3755H249.553L249.42 44.2884C250.903 40.7852 252.131 38.2202 253.113 36.5942L253.226 36.1138C253.257 35.9282 253.216 35.7319 253.103 35.5246C253.748 34.1166 254.075 33.3635 254.085 33.2872C252.909 32.9706 252.346 32.6979 252.397 32.4578L252.407 32.3814C252.847 32.2504 253.083 32.0866 253.134 31.8792L250.105 30.3185C249.399 30.3185 249.052 30.1005 249.082 29.6637L249.236 29.5655C250.351 29.8385 250.975 29.9802 251.108 29.9802C251.241 29.7075 251.446 29.5655 251.722 29.5655H251.814C252.223 29.5655 252.397 29.7403 252.326 30.0787C252.264 30.3949 252.489 30.5587 253.011 30.5587H253.236C253.359 30.5587 253.533 30.1986 253.748 29.4891C253.267 29.3253 253.062 29.0744 253.134 28.7361C253.512 28.6379 253.707 28.5398 253.737 28.4195C253.707 28.3214 253.185 28.0158 252.152 27.503L252.039 27.2518C252.233 27.1426 252.397 27.0882 252.53 27.0882C253.635 27.2517 254.443 27.3281 254.965 27.3281H255.651C256.326 27.0554 256.766 26.9134 256.981 26.9134V27.0119C257.114 26.979 257.267 26.8699 257.421 26.6735L257.431 26.2588C257.482 26.0076 257.82 25.3092 258.454 24.185C258.536 23.7813 258.782 23.312 259.201 22.777C259.58 20.9219 260.408 19.6013 261.698 18.8155C262.24 18.3679 263.11 17.3747 264.307 15.8468C264.358 15.8468 264.522 15.7922 264.798 15.6723C265.218 15.8361 265.545 15.9232 265.77 15.9232C266.077 15.203 266.425 14.8429 266.824 14.8429C266.824 15.3775 266.814 15.7051 266.793 15.8468H266.865C267.755 14.3079 268.379 13.5331 268.737 13.5331L268.768 13.6858L268.737 13.9478C267.96 15.7487 267.346 17.4075 266.885 18.9029C266.824 19.6777 266.763 20.2341 266.701 20.5618L266.619 20.9765C266.507 21.5004 265.637 22.9301 263.99 25.2656C263.304 26.3024 262.864 27.3281 262.67 28.3214C263.478 28.3214 264.123 28.0812 264.604 27.5901C266.456 27.6882 267.346 27.8849 267.284 28.1576H267.356C267.469 27.6665 267.745 27.4266 268.205 27.4266C268.727 27.4266 269.024 27.2082 269.116 26.7606C269.126 26.6625 269.218 26.4987 269.371 26.2588C269.392 25.8766 269.423 25.5822 269.474 25.3527L269.556 24.938C269.566 24.8834 269.74 24.5233 270.067 23.8684L269.965 23.6068L270.016 23.3666C270.814 21.6856 271.265 20.5835 271.377 20.0485H270.917C270.947 19.9068 270.927 19.743 270.865 19.5685C271.091 18.4007 271.459 17.8222 271.971 17.8222C272.646 17.3311 273.106 16.4689 273.352 15.2576C273.28 15.083 273.26 14.9193 273.301 14.7665V14.6791L274.16 12.7037L274.426 11.3721C274.518 10.892 275.245 10.2589 276.595 9.47305C276.974 8.87307 277.536 8.37095 278.284 7.98906H278.355C278.713 7.98906 279.092 8.06543 279.48 8.22891C279.777 7.72709 280.084 7.47588 280.401 7.47588C280.401 7.79244 280.463 8.01083 280.575 8.15254C280.739 8.15254 280.995 7.7596 281.353 6.98478C281.824 6.45013 282.11 6.17714 282.212 6.16641ZM268.645 11.6123H268.962C268.931 11.7325 268.973 11.7868 269.065 11.7868C269.013 12.0709 268.881 12.2672 268.645 12.3653H268.42C268.43 12.2782 268.399 12.169 268.328 12.027L268.359 11.8742C268.369 11.7868 268.471 11.6997 268.645 11.6123ZM265.944 12.7037C266.415 12.7037 266.599 12.9221 266.507 13.3585C266.374 13.8496 266.087 14.0898 265.668 14.0898C265.422 13.795 265.33 13.4677 265.402 13.1184C265.678 12.8457 265.862 12.7037 265.944 12.7037ZM277.434 21.9476L277.404 22.1224C277.516 22.1224 277.578 22.0678 277.598 21.9476H277.434ZM250.617 27.3281H250.934V27.7428L250.914 27.8413C250.893 27.9502 250.832 28.0048 250.719 28.0048H250.33C250.361 27.8849 250.351 27.7649 250.31 27.6665C250.443 27.4373 250.545 27.3281 250.617 27.3281ZM274.641 32.1412H275.02V32.5559L274.989 32.7086L274.58 32.7961H274.426V32.3814L274.446 32.2939C274.477 32.1958 274.549 32.1412 274.641 32.1412ZM275.48 32.5559H275.715C275.869 32.5559 275.92 32.6651 275.889 32.8725C275.858 32.9599 275.726 33.1016 275.48 33.2872C275.286 33.178 275.173 33.0688 275.163 32.9706L275.204 32.7961C275.214 32.7087 275.306 32.6323 275.48 32.5559ZM262.056 42.7277L262.015 42.8912H262.107L262.138 42.7277H262.056ZM249.819 43.7974L249.788 43.9719H249.87L249.89 43.7974H249.819ZM262.322 50.0073L262.281 50.1708H262.445L262.475 50.0073H262.322ZM250.208 50.8257L250.177 51.0002H250.248L250.279 50.8257H250.208ZM286.996 8.72002H287.334C287.488 8.77462 287.529 8.9602 287.467 9.26571L287.457 9.3424L287.027 9.45129H286.925C286.823 9.45129 286.792 9.36419 286.823 9.18934L286.996 8.72002ZM287.856 10.3353H288.102C288.02 11.0666 288.194 12.027 288.634 13.2276C288.746 13.8496 288.705 14.5699 288.531 15.3886C288.398 16.076 288.255 16.7091 288.091 17.2876C288.061 17.6477 287.999 18.0952 287.897 18.6299C287.744 19.394 286.7 21.2274 284.776 24.1303H284.93C285.656 23.8684 286.782 23.05 288.286 21.6856C288.767 20.8455 289.186 20.4308 289.565 20.4308C290.036 19.8305 290.506 19.4375 290.977 19.263C291.059 18.8483 291.458 18.4008 292.174 17.9097H292.511L292.921 18.0078C293.217 17.713 293.463 17.4511 293.657 17.2002L293.78 16.6545C293.893 16.098 294.281 15.683 294.957 15.3886C295.008 15.1373 295.458 14.7119 296.318 14.1116C296.399 13.6969 296.911 13.2276 297.852 12.7037C299.009 12.5837 300.288 12.5181 301.7 12.5181C301.996 12.5181 302.446 12.8457 303.03 13.4895C303.234 13.3803 303.408 13.3257 303.562 13.3257H303.726C303.838 13.3257 303.879 13.5877 303.828 14.1116C305.045 13.4678 305.762 13.1401 305.976 13.1401H306.048L305.946 13.6858C305.751 13.6858 305.096 14.2536 303.981 15.3886C302.692 16.4254 301.945 17.2112 301.751 17.7458C300.666 18.5863 299.704 19.0556 298.855 19.1756C298.722 19.3065 298.303 19.8522 297.607 20.8019L297.587 21.2602L297.566 21.3366C297.3 22.0022 296.625 22.7227 295.53 23.5083C294.394 23.6503 292.859 24.7199 290.926 26.7278H290.752C290.506 26.7278 290.291 26.6735 290.117 26.5751C289.432 27.0883 288.961 27.6011 288.705 28.1033C288.49 28.1033 287.887 28.6051 286.894 29.6201C286.475 29.7403 285.666 30.1876 284.49 30.9734C284.214 31.148 283.63 31.2354 282.761 31.2354L282.73 31.4317C283.129 31.4317 283.487 31.7593 283.784 32.4249C284.04 32.7197 285.462 33.058 288.071 33.4182C288.756 33.9856 289.882 34.5531 291.458 35.1316C291.703 35.3825 291.928 35.7972 292.123 36.3868C292.706 36.627 293.33 36.8343 294.005 37.0089C294.609 36.9543 295.069 36.9325 295.387 36.9325H295.561C296.584 37.3254 297.566 38.0456 298.507 39.0824C298.599 39.8355 298.876 40.3483 299.316 40.6213C300.011 41.0578 300.318 41.4726 300.247 41.8765C300.114 41.9419 300.022 41.9747 299.97 41.9747C299.612 41.8545 299.367 41.7891 299.223 41.7891L299.172 42.0728C301.29 44.0265 302.702 45.1614 303.408 45.4887L303.562 45.9255L303.511 46.2093L303.071 46.2964H302.804C302.948 45.6307 301.474 44.7032 298.385 43.5136C297.996 43.0222 297.648 42.7823 297.341 42.7823C297.259 42.7823 296.921 42.8041 296.318 42.8587C295.755 42.2692 294.895 41.909 293.749 41.7891L293.729 41.8765L293.852 42.1382L293.821 42.3348H293.729C293.453 42.3348 292.45 41.8873 290.711 40.9815C288.818 40.2502 287.713 39.8901 287.385 39.8901H287.212C286.956 40.0646 286.751 40.1521 286.577 40.1521C286.219 40.1521 284.971 39.6171 282.822 38.5478C282.566 38.5478 281.645 38.253 280.049 37.6527C279.558 37.7073 279.159 37.7401 278.852 37.7401H278.678C277.88 38.122 277.317 39.137 276.98 40.7851C276.929 41.0578 276.99 41.5817 277.174 42.3348C276.611 43.459 276.161 44.6375 275.803 45.8491C274.954 46.3838 274.381 47.4098 274.074 48.9159C273.859 49.3414 273.706 49.5487 273.614 49.5487C273.501 48.9377 273.368 48.6322 273.214 48.6322L271.096 54.1327C270.953 54.6784 270.82 54.951 270.697 54.951H270.513L270.534 54.8529C271.117 52.4956 271.465 51.0876 271.557 50.6183C271.69 49.3524 271.772 48.5994 271.823 48.3702L272.028 47.2896C271.7 46.7111 271.557 46.3184 271.588 46.1111C271.925 45.085 272.15 44.2446 272.283 43.59L272.314 43.4044C272.376 43.1096 272.324 42.9241 272.171 42.8587C272.058 42.9351 271.936 42.9679 271.823 42.9679L271.751 42.7823L271.772 42.6839C272.191 41.1888 272.826 39.4536 273.675 37.4671C273.726 37.249 273.798 36.9761 273.9 36.6595C273.818 36.6595 273.572 36.4739 273.174 36.1138C272.038 36.8233 271.117 37.3033 270.431 37.5545L270.391 37.369L270.431 37.1945C270.697 37.1727 271.434 36.6049 272.631 35.4917L272.652 35.3936C272.478 34.8589 272.426 34.3675 272.508 33.9421H271.751C271.751 33.3635 271.762 33.0145 271.782 32.8725C271.976 32.8179 272.099 32.6323 272.16 32.3157C272.202 32.0648 272.099 31.8792 271.843 31.7811C271.363 32.032 271.056 32.163 270.923 32.163L271.066 31.5191C271.23 31.3228 271.383 31.0826 271.526 30.7879H271.454C270.626 31.2026 270.155 31.7483 270.022 32.4249L269.674 34.1384C269.664 34.2258 269.531 34.3239 269.296 34.4221C269.081 34.062 269.04 33.5709 269.163 32.9706L269.193 32.785C269.572 30.897 270.616 29.7293 272.334 29.271H272.846C273.184 29.271 273.634 29.3035 274.186 29.3582L274.729 29.0962C275.118 29.0962 275.762 29.1508 276.663 29.271C276.755 28.8017 277.236 27.634 278.115 25.7457C278.248 24.7963 278.33 24.2288 278.361 24.0432C279.333 22.0132 279.896 20.6271 280.029 19.8851C280.325 18.4554 280.704 17.7458 281.144 17.7458C281.523 17.4186 281.952 16.9382 282.443 16.2943C282.955 16.1523 283.385 15.8579 283.733 15.3886C284.285 14.3625 285.094 13.8496 286.147 13.8496L286.26 13.6858L286.485 12.5181H286.823C286.772 12.7254 286.935 12.9328 287.293 13.1401L287.406 12.5945C287.478 12.2782 287.559 11.5687 287.662 10.4445L287.856 10.3353ZM304.268 10.5973C304.626 10.7828 304.769 11.0666 304.687 11.4267L304.636 11.7104C304.227 11.9399 303.9 12.0488 303.654 12.0488C303.49 11.9942 303.439 11.8196 303.49 11.5141L303.613 10.9028C303.726 10.9028 303.95 10.8046 304.268 10.5973ZM285.094 11.0666H285.513C285.595 11.5359 285.615 11.8632 285.564 12.0488C285.431 12.3 285.216 12.4199 284.899 12.4199C284.48 12.2561 284.306 11.9834 284.387 11.5905L284.418 11.4267C284.561 11.1868 284.786 11.0666 285.094 11.0666ZM307.092 11.3285H307.266L307.245 11.7868L307.225 11.8742C307.204 11.9942 307.133 12.0488 307.02 12.0488H306.611V11.5905L306.631 11.4267L307.092 11.3285ZM299.93 18.4554L299.786 18.6299H299.899C300.001 18.5753 300.093 18.5535 300.165 18.5535L300.175 18.4554H299.93ZM295.018 23.5083H295.192L295.223 23.3227C295.11 23.3337 295.039 23.3994 295.018 23.5083ZM270.125 35.2954L270.309 35.6773L270.237 36.0156L269.879 36.1138C269.664 36.0156 269.572 35.9282 269.603 35.8301L269.674 35.3936L270.125 35.2954ZM299.858 41.6035L299.848 41.7127H300.022L300.042 41.6035H299.858ZM293.483 41.8765L293.443 42.0728H293.535L293.565 41.8765H293.483ZM316.276 3.09962C316.347 3.09962 316.439 3.19777 316.552 3.39408C316.409 3.62353 316.296 3.74344 316.204 3.77627H315.917V3.39408L315.969 3.17599C315.999 3.17599 316.102 3.15422 316.276 3.09962ZM313.994 4.6057C314.332 4.6057 314.454 4.78022 314.383 5.1296L314.311 5.42407L314.178 5.80629H313.605C313.39 5.53329 313.288 5.32594 313.308 5.20601C313.421 4.80203 313.656 4.6057 313.994 4.6057ZM316.429 4.74742H316.501C316.654 4.74742 316.572 5.63143 316.255 7.38875C316.49 7.38875 316.583 7.50868 316.531 7.75959L316.521 7.83597C316.49 7.94517 316.368 8.02157 316.132 8.06544L316.081 8.28353C315.989 8.76389 316.04 9.09118 316.235 9.26571L316.214 9.3424C315.938 10.0408 315.784 10.4117 315.774 10.4663C315.723 11.9399 315.6 13.1622 315.406 14.1552L315.355 14.3736C315.16 15.3668 314.71 16.4471 314.014 17.6149C313.789 18.2262 313.492 19.2519 313.114 20.6927C313.124 21.7948 313.104 22.5043 313.042 22.7991L313.012 22.9519C312.94 23.3227 312.582 23.8466 311.917 24.5233L311.763 24.9819L311.64 27.0119L311.385 28.2885C311.344 28.5287 311.272 28.7796 311.16 29.0416L311.068 30.2422C310.74 30.9517 310.31 32.305 309.768 34.3022C310.628 34.6841 311.006 35.1098 310.914 35.5791L310.812 36.1138C311.374 36.1138 311.62 36.2886 311.548 36.6377V36.7141C311.354 36.7359 311.242 36.8122 311.211 36.9325C311.19 37.0852 311.487 37.1616 312.091 37.1616H312.725L313.063 37.238L312.991 37.5328C312.254 37.6309 311.528 37.8601 310.822 38.2094C309.032 38.5257 308.08 38.733 307.957 38.8205C307.865 38.8205 307.793 38.9404 307.742 39.1916L307.548 40.1738C307.64 40.8615 307.661 41.3526 307.599 41.6689C307.548 41.8873 307.026 43.317 306.034 45.958C305.225 46.7221 304.703 47.6715 304.478 48.8175C304.212 49.6144 303.967 50.018 303.742 50.018C303.599 50.018 303.588 49.6907 303.721 49.0469H303.578C303.281 49.3631 302.893 50.2911 302.401 51.8297C301.624 53.0848 301.051 54.1873 300.672 55.1366H300.457L300.498 54.9839C300.682 54.0124 301.214 52.5174 302.105 50.4766C302.064 50.1708 302.105 49.7236 302.227 49.1233C302.463 48.4138 302.596 47.9445 302.647 47.6936C302.677 47.5297 302.606 47.0715 302.432 46.3402C302.811 45.358 303.046 44.6268 303.138 44.1574C303.251 43.6225 303.312 43.0768 303.332 42.4986L302.933 42.8041H302.862V42.4222C302.944 41.9965 303.332 40.6213 304.038 38.2858C303.793 38.2312 303.609 38.2094 303.496 38.2094C302.176 38.4168 301.429 38.515 301.235 38.515L301.255 38.4386C301.143 38.1438 300.897 37.991 300.498 37.991H300.427C299.455 38.1873 298.933 38.4386 298.872 38.7441C298.411 39.2787 298.032 39.9336 297.715 40.6977C296.58 41.3962 295.874 42.1274 295.577 42.8805C295.495 43.2952 295.178 43.6989 294.625 44.0811C294.533 44.0811 294.492 44.0265 294.523 43.9283L294.615 43.4808L294.748 43.0986H294.472C293.623 44.4958 292.63 45.7507 291.474 46.8641C291.024 47.5626 290.717 47.9334 290.543 47.988H290.471V47.6172C290.655 47.3877 291.003 46.8095 291.525 45.8817C292.528 44.8666 293.142 43.8191 293.357 42.7277C293.817 42.0728 294.063 41.6253 294.114 41.3744C294.063 40.8177 294.022 40.545 293.991 40.545C294.656 39.3772 295.004 38.6788 295.055 38.4386C294.902 38.4386 294.41 38.264 293.602 37.9147H293.531C292.221 38.1656 291.525 38.4604 291.453 38.8205L290.594 38.8861H289.182C289.1 38.8861 288.763 38.6895 288.179 38.2858H286.42V37.9147C286.634 37.9147 286.829 37.7619 286.992 37.4671L286.378 37.3908C286.327 37.3908 286.082 37.4125 285.652 37.4671C285.621 37.4671 285.437 37.4454 285.11 37.3908C284.588 37.4889 284.036 37.5328 283.452 37.5328H282.255L282.286 37.3908C282.347 37.096 283.667 36.8233 286.256 36.5613C287.637 36.1466 288.384 35.8193 288.496 35.5791C288.527 35.4153 289.264 35.2736 290.696 35.1316L290.962 34.9025L290.87 34.6841L290.911 34.4549C293.694 34.204 295.618 34.0074 296.672 33.8547C297.081 33.6473 297.541 32.9706 298.063 31.8246C298.79 30.7661 299.178 30.144 299.209 29.9477C299.26 29.7403 299.27 29.4127 299.26 28.9652C300.048 27.5465 301.45 25.2874 303.445 22.1988C303.68 21.8822 304.038 21.031 304.519 19.6449C304.816 19.4375 305.164 18.859 305.553 17.9097C306.023 17.5057 306.555 16.5128 307.139 14.9082C307.497 14.5045 308.08 14.0459 308.888 13.5441C308.97 13.2711 309.339 12.9984 309.983 12.7254C310.085 12.1908 310.556 11.4706 311.405 10.5427C312.265 8.68751 312.889 7.75959 313.288 7.75959C313.626 7.85807 313.82 7.91268 313.892 7.91268C314.25 7.79244 314.516 7.25778 314.7 6.32988L315.007 6.25351C315.099 6.46086 315.13 6.86485 315.109 7.45409C315.293 7.45409 315.651 6.60289 316.184 4.90017L316.429 4.74742ZM314.598 15.7269L314.526 16.0324H314.598C314.68 15.8579 314.731 15.7597 314.741 15.7269H314.598ZM307.057 24.5997C305.89 27.099 305.123 28.6707 304.765 29.3364C304.366 29.6636 303.691 30.6679 302.749 32.3486C302.432 32.7087 302.186 33.0363 301.992 33.3307H302.279C302.719 33.1126 303.67 32.9599 305.113 32.8725V32.5013L305.358 31.3007C305.553 30.3514 305.972 28.9434 306.617 27.0882L307.087 24.7524L307.19 24.5997H307.057ZM312.5 34.3786H313.134C313.155 34.7058 313.155 34.9353 313.134 35.0552L313.104 35.2844C312.766 35.3825 312.541 35.4371 312.428 35.4371H312.08L312.111 34.9025L312.132 34.8261C312.346 34.6295 312.469 34.4767 312.5 34.3786ZM291.157 34.6841L291.136 34.7605H291.279L291.3 34.6841H291.157ZM314.106 36.2558H314.526L314.506 36.6377L314.475 36.8561H314.055C313.963 36.8561 313.922 36.7797 313.943 36.6377L314.106 36.2558ZM286.675 37.991L286.644 38.1438H286.716L286.747 37.991H286.675ZM303.128 42.1275V42.2038H303.261V42.1275H303.128ZM294.799 43.5572L294.789 43.6989H294.861L294.871 43.5572H294.799Z" fill="#EB8A24"/>
</svg>
