<svg width="179" height="126" viewBox="0 0 179 126" fill="none" xmlns="http://www.w3.org/2000/svg">
<path d="M0.757812 88V24.28H3.99781V88H0.757812ZM13.7178 88V24.28H16.9578V88H13.7178ZM20.1978 88V24.28H26.6778V88H20.1978ZM10.4778 97.396H17.6058C20.3418 97.396 22.3938 97.936 23.7618 99.016C25.2018 100.096 25.9218 101.608 25.9218 103.552C25.9218 104.776 25.5978 105.892 24.9498 106.9C24.2298 107.908 23.2938 108.628 22.1418 109.06C23.5818 109.564 24.7338 110.392 25.5978 111.544C26.4618 112.768 26.8938 114.064 26.8938 115.432C26.8938 117.592 26.1018 119.32 24.5178 120.616C23.0058 121.84 20.6658 122.452 17.4978 122.452H10.4778V97.396ZM17.1738 107.764C21.1338 107.764 23.1138 106.432 23.1138 103.768C23.1138 102.616 22.6458 101.68 21.7098 100.96C20.8458 100.168 19.4778 99.772 17.6058 99.772H13.1778V107.764H17.1738ZM18.0378 119.968C21.9258 119.968 23.8698 118.384 23.8698 115.216C23.8698 111.832 21.6738 110.14 17.2818 110.14H13.1778V119.968H18.0378ZM36.4062 88V24.28H39.6463V88H36.4062ZM49.3663 88V24.28H55.8463V88H49.3663ZM59.0863 88V24.28H68.8063V88H59.0863ZM46.8823 97.396H50.1223V97.72C49.9783 97.864 49.8703 98.044 49.7983 98.26C49.7983 98.404 49.7983 98.728 49.7983 99.232V120.076H61.7863V122.452H46.8823V97.396ZM72.0547 88V24.28H78.5347V88H72.0547ZM81.7747 88V24.28H91.4947V88H81.7747ZM101.215 88V24.28H104.455V88H101.215ZM88.1467 99.88H81.1267V97.396H98.4067V99.88H91.0627V122.452H88.1467V99.88ZM107.703 88V24.28H110.943V88H107.703ZM120.663 88V24.28H123.903V88H120.663ZM127.143 88V24.28H133.623V88H127.143ZM117.423 97.396H124.551C127.287 97.396 129.339 97.936 130.707 99.016C132.147 100.096 132.867 101.608 132.867 103.552C132.867 104.776 132.543 105.892 131.895 106.9C131.175 107.908 130.239 108.628 129.087 109.06C130.527 109.564 131.679 110.392 132.543 111.544C133.407 112.768 133.839 114.064 133.839 115.432C133.839 117.592 133.047 119.32 131.463 120.616C129.951 121.84 127.611 122.452 124.443 122.452H117.423V97.396ZM124.119 107.764C128.079 107.764 130.059 106.432 130.059 103.768C130.059 102.616 129.591 101.68 128.655 100.96C127.791 100.168 126.423 99.772 124.551 99.772H120.123V107.764H124.119ZM124.983 119.968C128.871 119.968 130.815 118.384 130.815 115.216C130.815 111.832 128.619 110.14 124.227 110.14H120.123V119.968H124.983ZM143.352 88V24.28H149.832V88H143.352ZM159.552 88V24.28H162.792V88H159.552ZM166.032 88V24.28H175.752V88H166.032ZM153.396 97.396H160.74C163.62 97.396 165.708 98.044 167.004 99.34C168.372 100.564 169.056 102.328 169.056 104.632C169.056 106.072 168.588 107.44 167.652 108.736C166.716 110.032 165.492 110.896 163.98 111.328L169.812 122.452H166.68L161.064 111.436H156.204V122.452H153.396V97.396ZM161.064 108.952C162.792 108.952 164.088 108.556 164.952 107.764C165.744 107.044 166.14 106 166.14 104.632C166.14 103.264 165.744 102.148 164.952 101.284C164.088 100.492 162.792 100.096 161.064 100.096H156.204V108.952H161.064Z" fill="white"/>
<path d="M11.5503 17V6.11L12.2163 6.776H7.53625V4.4H18.4623V6.776H13.7823L14.4303 6.11V17H11.5503ZM50.8074 17.216C49.8114 17.216 48.8874 17.054 48.0354 16.73C47.1954 16.406 46.4634 15.95 45.8394 15.362C45.2274 14.774 44.7474 14.084 44.3994 13.292C44.0634 12.5 43.8954 11.636 43.8954 10.7C43.8954 9.764 44.0634 8.9 44.3994 8.108C44.7474 7.316 45.2334 6.626 45.8574 6.038C46.4814 5.45 47.2134 4.994 48.0534 4.67C48.8934 4.346 49.8054 4.184 50.7894 4.184C51.7854 4.184 52.6974 4.346 53.5254 4.67C54.3654 4.994 55.0914 5.45 55.7034 6.038C56.3274 6.626 56.8134 7.316 57.1614 8.108C57.5094 8.888 57.6834 9.752 57.6834 10.7C57.6834 11.636 57.5094 12.506 57.1614 13.31C56.8134 14.102 56.3274 14.792 55.7034 15.38C55.0914 15.956 54.3654 16.406 53.5254 16.73C52.6974 17.054 51.7914 17.216 50.8074 17.216ZM50.7894 14.732C51.3534 14.732 51.8694 14.636 52.3374 14.444C52.8174 14.252 53.2374 13.976 53.5974 13.616C53.9574 13.256 54.2334 12.83 54.4254 12.338C54.6294 11.846 54.7314 11.3 54.7314 10.7C54.7314 10.1 54.6294 9.554 54.4254 9.062C54.2334 8.57 53.9574 8.144 53.5974 7.784C53.2494 7.424 52.8354 7.148 52.3554 6.956C51.8754 6.764 51.3534 6.668 50.7894 6.668C50.2254 6.668 49.7034 6.764 49.2234 6.956C48.7554 7.148 48.3414 7.424 47.9814 7.784C47.6214 8.144 47.3394 8.57 47.1354 9.062C46.9434 9.554 46.8474 10.1 46.8474 10.7C46.8474 11.288 46.9434 11.834 47.1354 12.338C47.3394 12.83 47.6154 13.256 47.9634 13.616C48.3234 13.976 48.7434 14.252 49.2234 14.444C49.7034 14.636 50.2254 14.732 50.7894 14.732ZM92.7438 17L88.8198 10.934L91.1778 9.512L96.0558 17H92.7438ZM84.5538 17V4.4H87.4518V17H84.5538ZM86.6058 11.924V9.494H90.9978V11.924H86.6058ZM91.4478 11.024L88.7658 10.7L92.8518 4.4H95.9298L91.4478 11.024ZM124.764 9.476H130.83V11.744H124.764V9.476ZM124.98 14.66H131.838V17H122.082V4.4H131.604V6.74H124.98V14.66ZM167.493 4.4H170.409V17H167.493V4.4ZM161.769 17H158.853V4.4H161.769V17ZM167.709 11.834H161.553V9.368H167.709V11.834Z" fill="white"/>
</svg>
